<?xml version="1.0" encoding="utf-8"?>
<!-- Generator: Adobe Illustrator 25.4.0, SVG Export Plug-In . SVG Version: 6.00 Build 0)  -->
<svg version="1.1" id="Capa_1" xmlns="http://www.w3.org/2000/svg" xmlns:xlink="http://www.w3.org/1999/xlink" x="0px" y="0px"
	 viewBox="0 0 36 36" style="enable-background:new 0 0 36 36;" xml:space="preserve">
<style type="text/css">
	.st0{fill:#FFFFFF;}
	.st1{display:none;}
	.st2{display:inline;}
</style>
<g>
	<path class="st0" d="M15.5,23.7l3.4-2.1l-1.3-2c0.6-0.6,1.2-1.4,1.6-2.2l2.3,0.5l0.9-3.9l-2.3-0.5c0-0.9-0.2-1.8-0.4-2.7l2-1.3
		L19.6,6l-2,1.3c-0.7-0.6-1.4-1.2-2.2-1.6l0.5-2.3L12,2.4l-0.5,2.3c-0.9,0-1.9,0.2-2.7,0.4l-1.3-2L4.1,5.3l1.3,2
		C4.7,7.9,4.2,8.7,3.7,9.5L1.4,9l-0.9,3.9l2.3,0.5c0,0.9,0.2,1.8,0.4,2.7l-2,1.3l2.1,3.4l2-1.3c0.7,0.6,1.4,1.2,2.2,1.6l-0.5,2.3
		l3.9,0.9l0.5-2.3c0.9,0,1.9-0.2,2.7-0.4L15.5,23.7z M7,12.3c0.5-2.1,2.4-3.6,4.5-3.6c0.4,0,0.7,0,1.1,0.1c1.2,0.3,2.2,1,2.9,2.1
		c0.7,1.1,0.9,2.3,0.6,3.5c-0.5,2.1-2.4,3.6-4.5,3.6c-0.4,0-0.7,0-1.1-0.1c-1.2-0.3-2.2-1-2.9-2.1C6.9,14.8,6.7,13.5,7,12.3z
		 M29.1,26.2l0.9-0.5l-1.6-2.6l-0.9,0.5c-0.3-0.2-0.5-0.4-0.8-0.6l0.2-1L24,21.4l-0.2,1c-0.3,0-0.7,0.1-1,0.2l-0.5-0.9l-2.6,1.6
		l0.5,0.9c-0.2,0.3-0.4,0.5-0.6,0.8l-1-0.2l-0.7,2.9l1,0.2c0,0.3,0.1,0.7,0.2,1l-0.9,0.5l1.6,2.6l0.9-0.5c0.3,0.2,0.5,0.4,0.8,0.6
		l-0.2,1l2.9,0.7l0.2-1c0.3,0,0.7-0.1,1-0.2l0.5,0.9l2.6-1.6L28,31c0.2-0.3,0.4-0.5,0.6-0.8l1,0.2l0.7-2.9l-1-0.2
		C29.2,26.9,29.2,26.6,29.1,26.2z M26.2,28.1c-0.3,1.2-1.4,1.9-2.6,1.6c-0.6-0.1-1.1-0.5-1.4-1c-0.3-0.5-0.4-1.1-0.3-1.7
		c0.2-1,1.1-1.7,2.1-1.7c0.2,0,0.3,0,0.5,0.1C25.7,25.7,26.5,26.9,26.2,28.1z M33.7,16.4l1.4,0.3l0.5-2l-1.4-0.3
		c0-0.6-0.1-1.1-0.3-1.6l1.2-0.7L34,10.4l-1.2,0.7c-0.4-0.4-0.8-0.7-1.3-1l0.3-1.4l-2-0.5l-0.3,1.4c0,0,0,0-0.1,0
		c-0.5,0-1.1,0.1-1.6,0.3l-0.7-1.2l-1.7,1.1l0.7,1.2c-0.4,0.4-0.7,0.8-1,1.3l-1.4-0.3l-0.5,2l1.4,0.3c0,0.6,0.1,1.1,0.3,1.6
		l-1.2,0.7l1.1,1.7l1.2-0.7c0.4,0.4,0.8,0.7,1.3,1L27.1,20l2,0.5l0.3-1.4c0,0,0,0,0.1,0c0.5,0,1.1-0.1,1.6-0.3l0.7,1.2l1.7-1.1
		l-0.7-1.2C33.1,17.4,33.4,17,33.7,16.4z M26.8,13.8c0.3-1.2,1.4-2.1,2.6-2.1c0.2,0,0.4,0,0.6,0.1c0.7,0.2,1.3,0.6,1.7,1.2
		c0.4,0.6,0.5,1.3,0.3,2c-0.3,1.4-1.8,2.3-3.2,2c-0.7-0.2-1.3-0.6-1.7-1.2C26.8,15.2,26.7,14.5,26.8,13.8z"/>
</g>
<g class="st1">
	<path class="st2" d="M28.3,17h1c-0.2-2.3-1.1-4.5-2.6-6.2L26,11.5c-0.4,0.4-1,0.4-1.4,0s-0.4-1,0-1.4l0.7-0.7
		C23.5,8,21.4,7.1,19,6.8v1c0,0.6-0.5,1-1,1s-1-0.5-1-1v-1c-2.3,0.2-4.5,1.1-6.2,2.6l0.7,0.7c0.4,0.4,0.4,1,0,1.4
		c-0.4,0.4-1,0.4-1.4,0l-0.7-0.7C7.9,12.6,7,14.7,6.8,17h1c0.6,0,1,0.5,1,1s-0.5,1-1,1h-1c0.2,2.3,1.1,4.5,2.6,6.2l0.7-0.7
		c0.4-0.4,1-0.4,1.4,0c0.4,0.4,0.4,1,0,1.4l-0.7,0.7c1.7,1.4,3.8,2.4,6.2,2.6v-1c0-0.6,0.5-1,1-1c0.6,0,1,0.5,1,1v1
		c2.3-0.2,4.5-1.1,6.2-2.6l-0.7-0.7c-0.4-0.4-0.4-1,0-1.4c0.4-0.4,1-0.4,1.4,0l0.7,0.7c1.4-1.7,2.4-3.8,2.6-6.2h-1c-0.6,0-1-0.5-1-1
		S27.7,17,28.3,17L28.3,17z M22.8,22.9c-0.4,0.4-1,0.4-1.4,0l-4.1-4.1c-0.2-0.2-0.3-0.5-0.3-0.7v-6.2c0-0.6,0.5-1,1-1s1,0.5,1,1v5.7
		l3.8,3.8C23.2,21.9,23.2,22.5,22.8,22.9z"/>
	<path class="st2" d="M18,0.6C8.4,0.6,0.5,8.5,0.5,18.1S8.4,35.6,18,35.6s17.5-7.9,17.5-17.5S27.6,0.6,18,0.6z M18,31.4
		c-7.3,0-13.3-6-13.3-13.3c0-7.2,5.9-13.3,13.3-13.3c7.3,0,13.3,6,13.3,13.3C31.3,25.4,25.4,31.4,18,31.4z"/>
</g>
<g class="st1">
	<g class="st2">
		<path d="M18,7C11.9,7,6.9,12,6.9,18.1S11.9,29.1,18,29.1s11.1-4.9,11.1-11.1S24.1,7,18,7z M18,22.7v-3.2h-3.7l3.7-6v3.2h3.7
			L18,22.7z"/>
	</g>
</g>
<g class="st1">
	<g class="st2">
		<path d="M19.9,16.7h-3.8v2.8h3.8c0-0.5-0.1-0.9-0.1-1.4S19.8,17.1,19.9,16.7z"/>
	</g>
</g>
<g class="st1">
	<g class="st2">
		<path d="M16.6,16.2V20c0.5,0,0.9-0.1,1.4-0.1s0.9,0,1.4,0.1v-3.8H16.6z"/>
	</g>
</g>
<g class="st1">
	<g class="st2">
		<path d="M17.6,15.8l-2,2l2.7,2.7c0.6-0.7,1.2-1.4,2-2L17.6,15.8z"/>
	</g>
</g>
<g class="st1">
	<g class="st2">
		<path d="M18.4,15.8l-2.7,2.7c0.7,0.6,1.4,1.2,2,2l2.7-2.7L18.4,15.8z"/>
	</g>
</g>
<g class="st1">
	<g class="st2">
		<path d="M17.6,15.8c-0.6,0.7-1.2,1.4-2,2l2.7,2.7l2-2L17.6,15.8z"/>
	</g>
</g>
<g class="st1">
	<g class="st2">
		<path d="M16.1,16.7c0,0.5,0.1,0.9,0.1,1.4s0,0.9-0.1,1.4h3.8v-2.8L16.1,16.7L16.1,16.7z"/>
	</g>
</g>
<g class="st1">
	<g class="st2">
		<path d="M18.4,15.8l-2.7,2.7l2,2l2.7-2.7C19.6,17.1,18.9,16.5,18.4,15.8z"/>
	</g>
</g>
<g class="st1">
	<g class="st2">
		<path d="M18,16.3c-0.5,0-0.9,0-1.4-0.1V20h2.8v-3.8C18.9,16.2,18.5,16.3,18,16.3z"/>
	</g>
</g>
<g class="st1">
	<path class="st2" d="M34.5,32.9h-1.2V15.4c0-0.6-0.5-1-1-1h-4.1c-0.6,0-1,0.5-1,1v17.5h-2.1V21.5c0-0.6-0.5-1-1-1H20
		c-0.6,0-1,0.5-1,1v11.4h-2V19.5c0-0.6-0.5-1-1-1h-4.1c-0.6,0-1,0.5-1,1v13.4H8.7v-4.6c0-0.6-0.5-1-1-1H3.6c-0.6,0-1,0.5-1,1v4.6h-1
		c-0.6,0-1,0.5-1,1c0,0.6,0.5,1,1,1h32.9c0.6,0,1-0.5,1-1C35.5,33.4,35,32.9,34.5,32.9L34.5,32.9z"/>
	<path class="st2" d="M34.5,1.2h-3.6c-0.6,0-1,0.5-1,1s0.5,1,1,1h1.3L21.8,14.8l-7.5-4.4c-0.4-0.2-1-0.2-1.3,0.2L0.8,24.3
		c-0.4,0.4-0.3,1.1,0.1,1.4C1,25.9,1.3,26,1.5,26c0.3,0,0.6-0.1,0.8-0.3L14,12.6l7.5,4.4c0.4,0.2,1,0.2,1.3-0.2L33.4,4.9v0.9
		c0,0.6,0.5,1,1,1c0.6,0,1-0.5,1-1V2.2C35.5,1.6,35,1.2,34.5,1.2L34.5,1.2z"/>
</g>
</svg>
