<svg xmlns="http://www.w3.org/2000/svg" width="34.955" height="33.7" viewBox="0 0 34.955 33.7">
  <g id="power-icon01" transform="translate(-0.545 -1.2)">
    <path id="Path_6" data-name="Path 6" d="M34.5,32.9H33.3V15.4a1,1,0,0,0-1-1H28.2a1,1,0,0,0-1,1V32.9H25.1V21.5a1,1,0,0,0-1-1H20a1,1,0,0,0-1,1V32.9H17V19.5a1,1,0,0,0-1-1H11.9a1,1,0,0,0-1,1V32.9H8.7V28.3a1,1,0,0,0-1-1H3.6a1,1,0,0,0-1,1v4.6h-1a1,1,0,0,0,0,2H34.5a1,1,0,0,0,1-1,1.075,1.075,0,0,0-1-1Z" fill="#fff"/>
    <path id="Path_7" data-name="Path 7" d="M34.5,1.2H30.9a1,1,0,0,0-1,1,1.075,1.075,0,0,0,1,1h1.3L21.8,14.8l-7.5-4.4a1.062,1.062,0,0,0-1.3.2L.8,24.3a.966.966,0,0,0,.1,1.4.713.713,0,0,0,.6.3,1.136,1.136,0,0,0,.8-.3L14,12.6,21.5,17a1.062,1.062,0,0,0,1.3-.2L33.4,4.9v.9a1,1,0,0,0,2,0V2.2a.871.871,0,0,0-.9-1Z" fill="#fff"/>
  </g>
</svg>
