<?xml version="1.0" encoding="utf-8"?>
<!-- Generator: Adobe Illustrator 25.4.0, SVG Export Plug-In . SVG Version: 6.00 Build 0)  -->
<svg version="1.1" id="Capa_1" xmlns="http://www.w3.org/2000/svg" xmlns:xlink="http://www.w3.org/1999/xlink" x="0px" y="0px"
	 viewBox="0 0 36 36" style="enable-background:new 0 0 36 36;" xml:space="preserve">
<style type="text/css">
	.st0{display:none;}
	.st1{display:inline;fill:#FFFFFF;}
	.st2{display:inline;}
	.st3{fill:#FFFFFF;}
</style>
<g class="st0">
	<path class="st1" d="M15.5,23.7l3.4-2.1l-1.3-2c0.6-0.6,1.2-1.4,1.6-2.2l2.3,0.5l0.9-3.9l-2.3-0.5c0-0.9-0.2-1.8-0.4-2.7l2-1.3
		L19.6,6l-2,1.3c-0.7-0.6-1.4-1.2-2.2-1.6l0.5-2.3l-3.9-1l-0.5,2.3c-0.9,0-1.9,0.2-2.7,0.4l-1.3-2L4.1,5.3l1.3,2
		C4.7,7.9,4.2,8.7,3.7,9.5L1.4,9l-0.9,3.9l2.3,0.5c0,0.9,0.2,1.8,0.4,2.7l-2,1.3l2.1,3.4l2-1.3c0.7,0.6,1.4,1.2,2.2,1.6L7,23.4
		l3.9,0.9l0.5-2.3c0.9,0,1.9-0.2,2.7-0.4L15.5,23.7z M7,12.3c0.5-2.1,2.4-3.6,4.5-3.6c0.4,0,0.7,0,1.1,0.1c1.2,0.3,2.2,1,2.9,2.1
		c0.7,1.1,0.9,2.3,0.6,3.5c-0.5,2.1-2.4,3.6-4.5,3.6c-0.4,0-0.7,0-1.1-0.1c-1.2-0.3-2.2-1-2.9-2.1C6.9,14.8,6.7,13.5,7,12.3z
		 M29.1,26.2l0.9-0.5l-1.6-2.6l-0.9,0.5c-0.3-0.2-0.5-0.4-0.8-0.6l0.2-1L24,21.4l-0.2,1c-0.3,0-0.7,0.1-1,0.2l-0.5-0.9l-2.6,1.6
		l0.5,0.9c-0.2,0.3-0.4,0.5-0.6,0.8l-1-0.2l-0.7,2.9l1,0.2c0,0.3,0.1,0.7,0.2,1l-0.9,0.5l1.6,2.6l0.9-0.5c0.3,0.2,0.5,0.4,0.8,0.6
		l-0.2,1l2.9,0.7l0.2-1c0.3,0,0.7-0.1,1-0.2l0.5,0.9l2.6-1.6L28,31c0.2-0.3,0.4-0.5,0.6-0.8l1,0.2l0.7-2.9l-1-0.2
		C29.2,26.9,29.2,26.6,29.1,26.2z M26.2,28.1c-0.3,1.2-1.4,1.9-2.6,1.6c-0.6-0.1-1.1-0.5-1.4-1s-0.4-1.1-0.3-1.7
		c0.2-1,1.1-1.7,2.1-1.7c0.2,0,0.3,0,0.5,0.1C25.7,25.7,26.5,26.9,26.2,28.1z M33.7,16.4l1.4,0.3l0.5-2l-1.4-0.3
		c0-0.6-0.1-1.1-0.3-1.6l1.2-0.7L34,10.4l-1.2,0.7c-0.4-0.4-0.8-0.7-1.3-1l0.3-1.4l-2-0.5l-0.3,1.4c0,0,0,0-0.1,0
		c-0.5,0-1.1,0.1-1.6,0.3l-0.7-1.2l-1.7,1.1l0.7,1.2c-0.4,0.4-0.7,0.8-1,1.3L23.7,12l-0.5,2l1.4,0.3c0,0.6,0.1,1.1,0.3,1.6l-1.2,0.7
		l1.1,1.7l1.2-0.7c0.4,0.4,0.8,0.7,1.3,1L27.1,20l2,0.5l0.3-1.4c0,0,0,0,0.1,0c0.5,0,1.1-0.1,1.6-0.3l0.7,1.2l1.7-1.1l-0.7-1.2
		C33.1,17.4,33.4,17,33.7,16.4z M26.8,13.8c0.3-1.2,1.4-2.1,2.6-2.1c0.2,0,0.4,0,0.6,0.1c0.7,0.2,1.3,0.6,1.7,1.2
		c0.4,0.6,0.5,1.3,0.3,2c-0.3,1.4-1.8,2.3-3.2,2c-0.7-0.2-1.3-0.6-1.7-1.2C26.8,15.2,26.7,14.5,26.8,13.8z"/>
</g>
<g class="st0">
	<path class="st1" d="M28.3,17h1c-0.2-2.3-1.1-4.5-2.6-6.2L26,11.5c-0.4,0.4-1,0.4-1.4,0s-0.4-1,0-1.4l0.7-0.7
		C23.5,8,21.4,7.1,19,6.8v1c0,0.6-0.5,1-1,1s-1-0.5-1-1v-1c-2.3,0.2-4.5,1.1-6.2,2.6l0.7,0.7c0.4,0.4,0.4,1,0,1.4s-1,0.4-1.4,0
		l-0.7-0.7C7.9,12.6,7,14.7,6.8,17h1c0.6,0,1,0.5,1,1s-0.5,1-1,1h-1c0.2,2.3,1.1,4.5,2.6,6.2l0.7-0.7c0.4-0.4,1-0.4,1.4,0
		s0.4,1,0,1.4l-0.7,0.7c1.7,1.4,3.8,2.4,6.2,2.6v-1c0-0.6,0.5-1,1-1c0.6,0,1,0.5,1,1v1c2.3-0.2,4.5-1.1,6.2-2.6l-0.7-0.7
		c-0.4-0.4-0.4-1,0-1.4s1-0.4,1.4,0l0.7,0.7c1.4-1.7,2.4-3.8,2.6-6.2h-1c-0.6,0-1-0.5-1-1S27.7,17,28.3,17L28.3,17z M22.8,22.9
		c-0.4,0.4-1,0.4-1.4,0l-4.1-4.1c-0.2-0.2-0.3-0.5-0.3-0.7v-6.2c0-0.6,0.5-1,1-1s1,0.5,1,1v5.7l3.8,3.8
		C23.2,21.9,23.2,22.5,22.8,22.9z"/>
	<path class="st1" d="M18,0.6C8.4,0.6,0.5,8.5,0.5,18.1S8.4,35.6,18,35.6s17.5-7.9,17.5-17.5S27.6,0.6,18,0.6z M18,31.4
		c-7.3,0-13.3-6-13.3-13.3c0-7.2,5.9-13.3,13.3-13.3c7.3,0,13.3,6,13.3,13.3S25.4,31.4,18,31.4z"/>
</g>
<g class="st0">
	<path class="st2" d="M34.5,32.9h-1.2V15.4c0-0.6-0.5-1-1-1h-4.1c-0.6,0-1,0.5-1,1v17.5h-2.1V21.5c0-0.6-0.5-1-1-1H20
		c-0.6,0-1,0.5-1,1v11.4h-2V19.5c0-0.6-0.5-1-1-1h-4.1c-0.6,0-1,0.5-1,1v13.4H8.7v-4.6c0-0.6-0.5-1-1-1H3.6c-0.6,0-1,0.5-1,1v4.6h-1
		c-0.6,0-1,0.5-1,1c0,0.6,0.5,1,1,1h32.9c0.6,0,1-0.5,1-1S35,32.9,34.5,32.9L34.5,32.9z"/>
	<path class="st2" d="M34.5,1.2h-3.6c-0.6,0-1,0.5-1,1s0.5,1,1,1h1.3L21.8,14.8l-7.5-4.4c-0.4-0.2-1-0.2-1.3,0.2L0.8,24.3
		c-0.4,0.4-0.3,1.1,0.1,1.4C1,25.9,1.3,26,1.5,26c0.3,0,0.6-0.1,0.8-0.3L14,12.6l7.5,4.4c0.4,0.2,1,0.2,1.3-0.2L33.4,4.9v0.9
		c0,0.6,0.5,1,1,1c0.6,0,1-0.5,1-1V2.2C35.5,1.6,35,1.2,34.5,1.2L34.5,1.2z"/>
</g>
<g class="st0">
	<ellipse class="st1" cx="10.7" cy="3.4" rx="10.2" ry="2.9"/>
	<path class="st1" d="M10.7,12.9c5.6,0,10.2-1.3,10.2-2.9V6.7c-3.2,1.7-8.7,1.8-10.2,1.8s-7-0.1-10.2-1.8V10
		C0.5,11.6,5.1,12.9,10.7,12.9z"/>
	<path class="st1" d="M14.4,28v4.4c-1.1,0.1-2.4,0.2-3.6,0.2c-5.6,0-10.2-1.3-10.2-2.9v-3.3c3.2,1.7,8.8,1.9,10.2,1.9
		C11.3,28.2,12.7,28.2,14.4,28z"/>
	<path class="st1" d="M14.5,21.4c0,0.1-0.1,0.3-0.1,0.4l-0.1,0v4C13.2,25.9,12,26,10.7,26c-5.6,0-10.2-1.3-10.2-2.9v-3.3
		c3.2,1.7,8.8,1.9,10.2,1.9C11.4,21.6,12.8,21.6,14.5,21.4z"/>
	<path class="st1" d="M10.7,15.1c-1.5,0-7-0.1-10.2-1.8v3.3c0,1.6,4.6,2.9,10.2,2.9s10.2-1.3,10.2-2.9v-3.3
		C17.7,15,12.2,15.1,10.7,15.1z"/>
	<ellipse class="st1" cx="26" cy="22.4" rx="9.5" ry="2.9"/>
	<path class="st1" d="M26,30.4c5.2,0,9.5-1.3,9.5-2.9v-1.8c-3,1.7-8.1,1.8-9.5,1.8c-1.4,0-6.5-0.1-9.5-1.8v1.8
		C16.5,29.1,20.8,30.4,26,30.4z"/>
	<path class="st1" d="M26,32.6c-1.4,0-6.5-0.1-9.5-1.8v1.8c0,1.6,4.2,2.9,9.5,2.9s9.5-1.3,9.5-2.9v-1.8C32.5,32.5,27.4,32.6,26,32.6
		z"/>
</g>
<g>
	<path class="st3" d="M18,3C9.7,3,3,9.7,3,18s6.7,15,15,15s15-6.7,15-15S26.3,3,18,3z M18,30.3c-6.8,0-12.3-5.5-12.3-12.3
		S11.2,5.7,18,5.7S30.3,11.2,30.3,18S24.8,30.3,18,30.3z"/>
	<path class="st3" d="M18,9.4c-1,0-1.8,0.8-1.8,1.8c0,1,0.8,1.8,1.8,1.8c1,0,1.8-0.8,1.8-1.8C19.8,10.2,19,9.4,18,9.4z"/>
	<path class="st3" d="M18,15.7c-0.8,0-1.4,0.6-1.4,1.4v8.2c0,0.8,0.6,1.4,1.4,1.4s1.4-0.6,1.4-1.4v-8.2C19.4,16.3,18.8,15.7,18,15.7
		z"/>
</g>
<g class="st0">
	<g class="st2">
		<g>
			<g>
				<path d="M34.7,31l-9-9l-0.5,0.5l-0.8-0.8c3.9-5.2,3.5-12.6-1.3-17.3C18-0.8,9.6-0.8,4.4,4.4s-5.2,13.6,0,18.8
					c4.7,4.7,12.1,5.1,17.3,1.3l0.8,0.8L22,25.7l9,9c1,1,2.7,1,3.7,0C35.8,33.7,35.8,32,34.7,31z M20.3,20.3c-3.6,3.6-9.4,3.6-13,0
					c-3.6-3.6-3.6-9.4,0-13c3.6-3.6,9.4-3.6,13,0C23.9,10.9,23.9,16.7,20.3,20.3z"/>
			</g>
		</g>
		<path class="st0" d="M14,7.6c-3.4,0-6.2,2.8-6.2,6.2S10.6,20,14,20s6.2-2.8,6.2-6.2S17.4,7.6,14,7.6z M14,19
			c-2.9,0-5.2-2.4-5.2-5.2s2.4-5.2,5.2-5.2s5.2,2.4,5.2,5.2S16.9,19,14,19z"/>
		<circle class="st0" cx="14" cy="13.8" r="6.2"/>
		<path class="st0" d="M17.8,13.5h-0.7l0.4-2.1c0.1-0.3-0.1-0.5-0.4-0.6c-0.3-0.1-0.5,0.1-0.6,0.4l-0.5,2.3h-1l-0.7-2.4
			c-0.1-0.4-0.8-0.4-0.9,0l-0.7,2.4h-1l-0.5-2.3c-0.1-0.3-0.3-0.4-0.6-0.4c-0.3,0.1-0.4,0.3-0.4,0.6l0.4,2.1h-0.7
			c-0.3,0-0.5,0.2-0.5,0.5c0,0.3,0.2,0.5,0.5,0.5H11l0.5,2.6l0,0c0.1,0.2,0.3,0.4,0.6,0.4c0,0,0,0,0,0c0.3,0,0.5-0.2,0.6-0.4
			l0.8-2.6h1l0.8,2.6l0,0c0.1,0.2,0.3,0.4,0.6,0.4c0,0,0,0,0,0c0.3,0,0.5-0.2,0.6-0.4l0,0l0.5-2.6h0.9c0.3,0,0.5-0.2,0.5-0.5
			S18,13.5,17.8,13.5L17.8,13.5z M12.2,15.4l-0.2-1h0.5L12.2,15.4z M13.8,13.5l0.2-0.6l0.2,0.6H13.8z M15.7,15.4l-0.3-1h0.5
			L15.7,15.4z"/>
		<g>
			<polygon points="12.2,15.4 12.5,14.4 12,14.4 			"/>
			<polygon points="13.8,13.5 14.2,13.5 14,12.9 			"/>
			<path d="M14,7.6c-3.4,0-6.2,2.8-6.2,6.2S10.6,20,14,20s6.2-2.8,6.2-6.2S17.4,7.6,14,7.6z M17.8,14.4h-0.9L16.4,17l0,0
				c-0.1,0.2-0.3,0.4-0.6,0.4c0,0,0,0,0,0c-0.3,0-0.5-0.2-0.6-0.4l0,0l-0.8-2.6h-1L12.7,17c-0.1,0.2-0.3,0.4-0.6,0.4c0,0,0,0,0,0
				c-0.3,0-0.5-0.2-0.6-0.4l0,0L11,14.4h-0.9c-0.3,0-0.5-0.2-0.5-0.5s0.2-0.5,0.5-0.5h0.7l-0.4-2.1c-0.1-0.3,0.1-0.5,0.4-0.6
				c0.3-0.1,0.5,0.1,0.6,0.4l0.5,2.3h1l0.7-2.4c0.1-0.4,0.8-0.4,0.9,0l0.7,2.4h1l0.5-2.3c0.1-0.3,0.3-0.4,0.6-0.4s0.4,0.3,0.4,0.6
				l-0.4,2.1h0.7c0.3,0,0.5,0.2,0.5,0.5C18.2,14.2,18,14.4,17.8,14.4z"/>
			<polygon points="15.7,15.4 15.9,14.4 15.4,14.4 			"/>
		</g>
	</g>
</g>
</svg>
