<svg xmlns="http://www.w3.org/2000/svg" width="20.359" height="30" viewBox="0 0 20.359 30">
  <g id="Group_1849" data-name="Group 1849" transform="translate(-782.173 -770.898)">
    <g id="Group_1842" data-name="Group 1842" transform="translate(782.173 770.898)">
      <g id="Group_1836" data-name="Group 1836">
        <g id="Group_1833" data-name="Group 1833" transform="translate(0 23.808)">
          <path id="Path_1633" data-name="Path 1633" d="M801.437,827.6H783.268a1.1,1.1,0,0,1-1.095-1.1v-5.1h20.359v5.1A1.1,1.1,0,0,1,801.437,827.6Zm-18.321-5.249V826.5a.152.152,0,0,0,.152.153h18.169a.151.151,0,0,0,.153-.153v-4.153Z" transform="translate(-782.173 -821.406)" fill="#aaa"/>
        </g>
        <g id="Group_1834" data-name="Group 1834">
          <path id="Path_1634" data-name="Path 1634" d="M802.532,776.667H782.173v-4.673a1.1,1.1,0,0,1,1.095-1.1h18.169a1.1,1.1,0,0,1,1.1,1.1Zm-19.417-.943H801.59v-3.73a.151.151,0,0,0-.153-.153H783.268a.152.152,0,0,0-.152.153Z" transform="translate(-782.173 -770.898)" fill="#aaa"/>
        </g>
        <g id="Group_1835" data-name="Group 1835" transform="translate(0 4.826)">
          <path id="Path_1635" data-name="Path 1635" d="M802.532,801.062H782.173V781.137h20.359Zm-19.417-.943H801.59V782.08H783.116Z" transform="translate(-782.173 -781.137)" fill="#aaa"/>
        </g>
      </g>
      <g id="Group_1839" data-name="Group 1839" transform="translate(7.406 2.26)">
        <g id="Group_1838" data-name="Group 1838">
          <g id="Group_1837" data-name="Group 1837">
            <path id="Path_1636" data-name="Path 1636" d="M802.808,776.942h-4.3a.624.624,0,0,1,0-1.249h4.3a.624.624,0,0,1,0,1.249Z" transform="translate(-797.884 -775.693)" fill="#aaa"/>
          </g>
        </g>
      </g>
      <g id="Group_1841" data-name="Group 1841" transform="translate(8.811 25.535)">
        <g id="Group_1840" data-name="Group 1840">
          <path id="Path_1637" data-name="Path 1637" d="M803.6,826.438a1.369,1.369,0,1,1-1.369-1.37A1.37,1.37,0,0,1,803.6,826.438Z" transform="translate(-800.865 -825.068)" fill="#aaa"/>
        </g>
      </g>
    </g>
    <g id="Group_1848" data-name="Group 1848" transform="translate(788.297 780.315)">
      <g id="Group_1845" data-name="Group 1845">
        <g id="Group_1844" data-name="Group 1844">
          <g id="Group_1843" data-name="Group 1843">
            <path id="Path_1638" data-name="Path 1638" d="M799.22,800.883a5.778,5.778,0,0,1-2.257-.85,5.575,5.575,0,0,1-1.211-1.061.576.576,0,0,1-.122-.3l-.464-5.477a.566.566,0,0,1,.564-.614,5.1,5.1,0,0,0,3.083-1.535.584.584,0,0,1,.815,0,5.225,5.225,0,0,0,3.083,1.535.566.566,0,0,1,.564.614l-.464,5.477a.572.572,0,0,1-.122.3,5.644,5.644,0,0,1-3.468,1.911Zm-2.479-2.5a4.7,4.7,0,0,0,.839.7,5.293,5.293,0,0,0,1.64.667,4.836,4.836,0,0,0,1.639-.667,4.675,4.675,0,0,0,.839-.7l.4-4.728a6.34,6.34,0,0,1-2.879-1.456,6.344,6.344,0,0,1-2.879,1.456Z" transform="translate(-795.164 -790.875)" fill="#6ac6c1"/>
          </g>
        </g>
      </g>
      <g id="Group_1847" data-name="Group 1847" transform="translate(2.24 3.454)">
        <g id="Group_1846" data-name="Group 1846">
          <path id="Path_1639" data-name="Path 1639" d="M801.571,802.077a.566.566,0,0,1-.458-.234l-1.089-1.5a.566.566,0,0,1,.916-.665l.587.808,1.211-2.012a.566.566,0,0,1,.97.585l-1.653,2.743a.567.567,0,0,1-.461.272Z" transform="translate(-799.915 -798.202)" fill="#6ac6c1"/>
        </g>
      </g>
    </g>
  </g>
</svg>
