<svg xmlns="http://www.w3.org/2000/svg" width="29.837" height="26.52" viewBox="0 0 29.837 26.52">
  <g id="Group_1872" data-name="Group 1872" transform="translate(-222.25 -1095.501)">
    <g id="Group_1869" data-name="Group 1869" transform="translate(232.488 1099.403)">
      <g id="Group_1867" data-name="Group 1867" transform="translate(0 0)">
        <path id="Path_1649" data-name="Path 1649" d="M255.992,1106.214a.459.459,0,0,0-.336-.147c-2,0-3.878-1.91-3.9-1.93a.471.471,0,0,0-.657,0c-.019.02-1.891,1.93-3.9,1.93a.455.455,0,0,0-.455.495l.562,6.629a.456.456,0,0,0,.1.247,6.464,6.464,0,0,0,1.413,1.234,6.843,6.843,0,0,0,2.607.993,6.574,6.574,0,0,0,2.607-.993,6.43,6.43,0,0,0,1.413-1.234.448.448,0,0,0,.1-.247l.561-6.629A.458.458,0,0,0,255.992,1106.214Zm-1.34,6.753a5.85,5.85,0,0,1-3.22,1.785,6.427,6.427,0,0,1-2.11-.845,5.956,5.956,0,0,1-1.111-.941l-.509-6.015a7.381,7.381,0,0,0,3.73-1.868,7.375,7.375,0,0,0,3.73,1.868Z" transform="translate(-246.75 -1104.004)" fill="#6ac6c1"/>
      </g>
      <g id="Group_1868" data-name="Group 1868" transform="translate(2.711 4.183)">
        <path id="Path_1650" data-name="Path 1650" d="M252.328,1113.03a.456.456,0,1,0-.738.537l1.318,1.815a.458.458,0,0,0,.369.188h.02a.456.456,0,0,0,.371-.22l2-3.32a.456.456,0,1,0-.782-.471l-1.645,2.73Z" transform="translate(-251.502 -1111.337)" fill="#6ac6c1"/>
      </g>
    </g>
    <g id="Group_1871" data-name="Group 1871" transform="translate(235.777 1114.913)">
      <g id="Group_1870" data-name="Group 1870" transform="translate(0 0)">
        <path id="Path_1651" data-name="Path 1651" d="M253.94,1139.291a1.047,1.047,0,1,1-1.046-1.048A1.047,1.047,0,0,1,253.94,1139.291Z" transform="translate(-251.846 -1138.243)" fill="#aaa"/>
      </g>
    </g>
    <rect id="Rectangle_1741" data-name="Rectangle 1741" width="28.837" height="22.533" rx="4" transform="translate(222.75 1096.001)" fill="none" stroke="#aaa" stroke-miterlimit="10" stroke-width="1"/>
    <path id="Path_1653" data-name="Path 1653" d="M0,0H28.837" transform="translate(222.75 1113.387)" fill="none" stroke="#aaa" stroke-width="1"/>
    <path id="Path_1652" data-name="Path 1652" d="M245.4,1145.914l-.9,3.173h8.354l-.9-3.173" transform="translate(-12.012 -27.566)" fill="none" stroke="#8fa2b7" stroke-miterlimit="10" stroke-width="1"/>
  </g>
</svg>
