<svg xmlns="http://www.w3.org/2000/svg" width="20" height="20" viewBox="0 0 20 20">
  <g id="Group_29" data-name="Group 29" transform="translate(-147.276 -43)">
    <g id="Group_22" data-name="Group 22">
      <circle id="Ellipse_2" data-name="Ellipse 2" cx="10" cy="10" r="10" transform="translate(147.276 43)" fill="#dd1c48"/>
    </g>
    <g id="Group_26" data-name="Group 26">
      <g id="Group_25" data-name="Group 25">
        <g id="Group_23" data-name="Group 23">
          <circle id="Ellipse_3" data-name="Ellipse 3" cx="1.25" cy="1.25" r="1.25" transform="translate(152.27 49.368)" fill="#950e1b"/>
        </g>
        <g id="Group_24" data-name="Group 24">
          <circle id="Ellipse_4" data-name="Ellipse 4" cx="1.25" cy="1.25" r="1.25" transform="translate(159.781 49.368)" fill="#950e1b"/>
        </g>
      </g>
    </g>
    <g id="Group_28" data-name="Group 28">
      <g id="Group_27" data-name="Group 27">
        <path id="Path_39" data-name="Path 39" d="M161.531,58.132a.5.5,0,0,1-.45-.283h0a4.415,4.415,0,0,0-7.61,0,.5.5,0,0,1-.9-.432,5.408,5.408,0,0,1,9.413,0,.5.5,0,0,1-.236.666A.486.486,0,0,1,161.531,58.132Z" fill="#950e1b"/>
      </g>
    </g>
  </g>
</svg>
