<svg xmlns="http://www.w3.org/2000/svg" width="71" height="83.875" viewBox="0 0 71 83.875">
  <g id="Group_121" data-name="Group 121" transform="translate(-272.744 -510.138)">
    <path id="Path_1597" data-name="Path 1597" d="M308.244,510.138a35.5,35.5,0,0,0-15.7,67.342c-3.264,9.64-12.678,16.533-12.678,16.533,16.277-3.25,23.848-8.949,27.283-12.9.363.01.726.027,1.093.027a35.5,35.5,0,1,0,0-71Z" fill="#66d7f2"/>
    <g id="Group_120" data-name="Group 120" transform="translate(282.109 519.368)">
      <path id="Path_1598" data-name="Path 1598" d="M333.884,582.862c0,5.425-7.067,9.822-15.785,9.822s-15.785-4.4-15.785-9.822,7.067-9.822,15.785-9.822S333.884,577.437,333.884,582.862Z" transform="translate(-291.965 -540.332)" fill="#dcdcea"/>
      <path id="Path_1599" data-name="Path 1599" d="M338.312,567.293a7.472,7.472,0,0,1-7.473,7.473H294.264a7.473,7.473,0,0,1-7.473-7.473h0a7.473,7.473,0,0,1,7.473-7.473h36.575a7.472,7.472,0,0,1,7.473,7.473Z" transform="translate(-286.791 -535.926)" fill="#a0a0c3"/>
      <path id="Path_1600" data-name="Path 1600" d="M338.312,569.3a7.472,7.472,0,0,1-7.473,7.473H294.264a7.473,7.473,0,0,1-7.473-7.473h0a7.473,7.473,0,0,1,7.473-7.473h36.575a7.472,7.472,0,0,1,7.473,7.473Z" transform="translate(-286.791 -536.596)" fill="#8080a4"/>
      <rect id="Rectangle_90" data-name="Rectangle 90" width="2.479" height="12.617" transform="translate(24.521 1.728)" fill="#8080a4"/>
      <path id="Path_1601" data-name="Path 1601" d="M327.307,527.738a3.755,3.755,0,1,1-3.755-3.756A3.755,3.755,0,0,1,327.307,527.738Z" transform="translate(-297.791 -523.982)" fill="#fff"/>
      <rect id="Rectangle_91" data-name="Rectangle 91" width="39.804" height="32.144" rx="16.072" transform="translate(5.859 12.912)" fill="#f3f3f3"/>
      <path id="Rectangle_92" data-name="Rectangle 92" d="M16.071,0h7.662A16.072,16.072,0,0,1,39.8,16.072v0A16.072,16.072,0,0,1,23.733,32.144H16.072A16.072,16.072,0,0,1,0,16.072v0A16.071,16.071,0,0,1,16.071,0Z" transform="translate(5.859 15.471)" fill="#fff"/>
      <path id="Path_1602" data-name="Path 1602" d="M333.354,570.806a10.523,10.523,0,0,1-10.709,10.326H312.369a10.523,10.523,0,0,1-10.709-10.326h0a10.524,10.524,0,0,1,10.709-10.327h10.275a10.524,10.524,0,0,1,10.709,10.327Z" transform="translate(-291.747 -536.146)" fill="#2b3c48"/>
      <path id="Path_1603" data-name="Path 1603" d="M333.243,569.027a10.523,10.523,0,0,1-10.709,10.325H312.258a10.522,10.522,0,0,1-10.709-10.325h0A10.523,10.523,0,0,1,312.258,558.7h10.275a10.523,10.523,0,0,1,10.709,10.327Z" transform="translate(-291.71 -535.553)" fill="#5d5d79"/>
      <g id="Group_119" data-name="Group 119" transform="translate(16.941 32.294)">
        <path id="Path_1604" data-name="Path 1604" d="M315.3,574.136a1.556,1.556,0,1,1-1.548-1.716A1.637,1.637,0,0,1,315.3,574.136Z" transform="translate(-312.201 -572.42)" fill="#b3b3ff"/>
        <path id="Path_1605" data-name="Path 1605" d="M338.232,574.136a1.556,1.556,0,1,1-1.547-1.716A1.638,1.638,0,0,1,338.232,574.136Z" transform="translate(-319.845 -572.42)" fill="#b3b3ff"/>
      </g>
      <path id="Path_1606" data-name="Path 1606" d="M319.287,580.362a6.7,6.7,0,0,0,8.937,0" transform="translate(-297.621 -542.773)" fill="none" stroke="#b3b3ff" stroke-linecap="round" stroke-linejoin="round" stroke-width="3"/>
      <path id="Path_1607" data-name="Path 1607" d="M333.824,567.783a11.755,11.755,0,0,0-11.986-11.363H311.563a11.745,11.745,0,0,0-11.987,11.459,11.08,11.08,0,0,0,.075,1.269,11.755,11.755,0,0,0,11.986,11.362h10.275A11.745,11.745,0,0,0,333.9,569.052,11.093,11.093,0,0,0,333.824,567.783Zm-11.911,11.466H311.638a10.465,10.465,0,0,1-10.709-10.178,9.893,9.893,0,0,1-.074-1.191,10.463,10.463,0,0,1,10.709-10.2h10.275a10.465,10.465,0,0,1,10.709,10.18,9.754,9.754,0,0,1,.075,1.191A10.462,10.462,0,0,1,321.913,579.248Z" transform="translate(-291.052 -534.793)" fill="#7272cc"/>
      <path id="Path_1608" data-name="Path 1608" d="M333.825,568.4a11.755,11.755,0,0,0-11.986-11.364H311.564A11.745,11.745,0,0,0,299.577,568.5a11.2,11.2,0,0,0,.075,1.267,11.756,11.756,0,0,0,11.987,11.364h10.275A11.745,11.745,0,0,0,333.9,569.669,11.223,11.223,0,0,0,333.825,568.4Zm-11.912,11.466H311.639a10.464,10.464,0,0,1-10.709-10.179,9.89,9.89,0,0,1-.075-1.191,10.462,10.462,0,0,1,10.709-10.2h10.275a10.463,10.463,0,0,1,10.708,10.178,9.646,9.646,0,0,1,.076,1.191A10.463,10.463,0,0,1,321.913,579.866Z" transform="translate(-291.052 -534.999)" fill="#9f9aff"/>
    </g>
  </g>
</svg>
