<svg xmlns="http://www.w3.org/2000/svg" width="78" height="78" viewBox="0 0 78 78">
  <g id="icon" transform="translate(-137.5 -173.5)">
    <g id="Ellipse_17" data-name="Ellipse 17" transform="translate(137.5 173.5)" fill="#fff" stroke="#c7c7c7" stroke-width="1">
      <circle cx="39" cy="39" r="39" stroke="none"/>
      <circle cx="39" cy="39" r="38.5" fill="none"/>
    </g>
    <path id="Path_23" data-name="Path 23" d="M21.606,19.743v0a1.282,1.282,0,0,0-.394-.926h0L2.179.355l0,0a1.286,1.286,0,1,0-1.728,1.9L18.5,19.743l-6.828,6.828h0a1.286,1.286,0,0,0,1.818,1.818h0l7.718-7.718h0a1.282,1.282,0,0,0,.394-.926Z" transform="translate(190.23 201.863) rotate(90)" fill="none" stroke="#008485" stroke-linecap="round" stroke-linejoin="round" stroke-width="3"/>
  </g>
</svg>
