<?xml version="1.0" encoding="utf-8"?>
<!-- Generator: Adobe Illustrator 25.4.0, SVG Export Plug-In . SVG Version: 6.00 Build 0)  -->
<svg version="1.1" xmlns="http://www.w3.org/2000/svg" xmlns:xlink="http://www.w3.org/1999/xlink" x="0px" y="0px"
	 viewBox="0 0 150 150" style="enable-background:new 0 0 150 150;" xml:space="preserve">
<style type="text/css">
	.st0{display:none;fill:#A5A5A5;}
	.st1{display:none;}
	.st2{display:inline;fill:#E9E8E8;}
	.st3{fill:none;stroke:#E9E8E8;stroke-width:3;stroke-linecap:round;stroke-linejoin:round;stroke-miterlimit:10;}
	.st4{fill:none;stroke:#E9E8E8;stroke-width:4;stroke-linecap:round;stroke-linejoin:round;stroke-miterlimit:10;}
	.st5{fill:#E9E8E8;}
	.st6{fill:none;stroke:#E9E8E8;stroke-width:2;stroke-linecap:round;stroke-linejoin:round;stroke-miterlimit:10;}
	.st7{display:inline;}
	.st8{display:inline;fill:none;stroke:#E9E8E8;stroke-width:4;stroke-miterlimit:10;}
	.st9{display:inline;fill:none;stroke:#E9E8E8;stroke-width:3;stroke-linecap:round;stroke-linejoin:round;stroke-miterlimit:10;}
</style>
<g id="레이어_1">
</g>
<g id="레이어_2">
	<rect y="0.86" class="st0" width="150" height="671.27"/>
	<g class="st1">
		<path class="st2" d="M57.69,45.93h34.62c1.06,0,1.92-0.85,1.92-1.9V21.17c0-1.05-0.86-1.9-1.92-1.9H57.69
			c-1.06,0-1.92,0.85-1.92,1.9v22.85C55.77,45.07,56.63,45.93,57.69,45.93z M59.62,42.12v-3.81h30.77v3.81H59.62z M90.38,23.08V34.5
			H59.62V23.08H90.38z"/>
		<path class="st2" d="M107.69,11.65H42.31C32.76,11.65,25,19.34,25,28.79v103.34c0,5.25,4.31,9.52,9.62,9.52h80.77
			c5.3,0,9.62-4.27,9.62-9.52V28.79C125,19.34,117.24,11.65,107.69,11.65z M121.15,132.13c0,3.15-2.59,5.71-5.77,5.71H34.62
			c-3.18,0-5.77-2.56-5.77-5.71V28.79c0-7.35,6.04-13.33,13.46-13.33h65.38c7.42,0,13.46,5.98,13.46,13.33V132.13z"/>
		<path class="st2" d="M46.15,30.69c3.18,0,5.77-2.56,5.77-5.71s-2.59-5.71-5.77-5.71c-3.18,0-5.77,2.56-5.77,5.71
			S42.97,30.69,46.15,30.69z M46.15,23.08c1.06,0,1.92,0.85,1.92,1.9c0,1.05-0.86,1.9-1.92,1.9s-1.92-0.85-1.92-1.9
			C44.23,23.93,45.09,23.08,46.15,23.08z"/>
		<path class="st2" d="M46.15,45.93c3.18,0,5.77-2.56,5.77-5.71s-2.59-5.71-5.77-5.71c-3.18,0-5.77,2.56-5.77,5.71
			S42.97,45.93,46.15,45.93z M46.15,38.31c1.06,0,1.92,0.85,1.92,1.9s-0.86,1.9-1.92,1.9s-1.92-0.85-1.92-1.9
			S45.09,38.31,46.15,38.31z"/>
		<path class="st2" d="M103.85,19.27c-3.18,0-5.77,2.56-5.77,5.71s2.59,5.71,5.77,5.71c3.18,0,5.77-2.56,5.77-5.71
			S107.03,19.27,103.85,19.27z M103.85,26.88c-1.06,0-1.92-0.85-1.92-1.9c0-1.05,0.86-1.9,1.92-1.9c1.06,0,1.92,0.85,1.92,1.9
			C105.77,26.03,104.91,26.88,103.85,26.88z"/>
		<path class="st2" d="M103.85,34.5c-3.18,0-5.77,2.56-5.77,5.71s2.59,5.71,5.77,5.71c3.18,0,5.77-2.56,5.77-5.71
			S107.03,34.5,103.85,34.5z M103.85,42.12c-1.06,0-1.92-0.85-1.92-1.9s0.86-1.9,1.92-1.9c1.06,0,1.92,0.85,1.92,1.9
			S104.91,42.12,103.85,42.12z"/>
		<path class="st2" d="M100,49.74H50c-5.3,0-9.62,4.27-9.62,9.52v11.43c0,1.05,0.86,1.9,1.92,1.9s1.92-0.85,1.92-1.9V59.26
			c0-3.15,2.59-5.71,5.77-5.71h50c3.18,0,5.77,2.56,5.77,5.71v30.47c0,3.15-2.59,5.71-5.77,5.71H50c-3.18,0-5.77-2.56-5.77-5.71
			V78.3c0-1.05-0.86-1.9-1.92-1.9c-1.06,0-1.92,0.85-1.92,1.9v11.43c0,5.25,4.31,9.52,9.62,9.52h50c5.3,0,9.62-4.27,9.62-9.52V59.26
			C109.62,54.01,105.3,49.74,100,49.74z"/>
		<path class="st2" d="M100,91.63c1.06,0,1.92-0.85,1.92-1.9V59.26c0-1.05-0.86-1.9-1.92-1.9H50c-1.06,0-1.92,0.85-1.92,1.9v30.47
			c0,1.05,0.86,1.9,1.92,1.9H100z M51.92,87.82V76.4h46.15v11.43H51.92z M98.08,61.16v11.43H51.92V61.16H98.08z"/>
	</g>
	<g>
		<path class="st3" d="M51.66,58.17v-7.94c0-2.28,1.7-4.15,3.78-4.15h37.45c2.08,0,3.78,1.87,3.78,4.15v21.7
			c0,2.28-1.7,4.15-3.78,4.15H55.44c-2.08,0-3.78-1.87-3.78-4.15v-8.77"/>
		<g>
			<path class="st4" d="M130.8,119.15H19.2c-2.31,0-4.2-2.04-4.2-4.54V38.69c0-2.5,1.89-4.54,4.2-4.54h111.6
				c2.31,0,4.2,2.04,4.2,4.54v75.92C135,117.11,133.11,119.15,130.8,119.15z"/>
			<path class="st5" d="M25.8,114.15L25.8,114.15c-1.1,0-2-0.9-2-2v-76c0-1.1,0.9-2,2-2h0c1.1,0,2,0.9,2,2v76
				C27.8,113.25,26.9,114.15,25.8,114.15z"/>
			<path class="st5" d="M124.2,119.15L124.2,119.15c-1.1,0-2-0.9-2-2v-76c0-1.1,0.9-2,2-2h0c1.1,0,2,0.9,2,2v76
				C126.2,118.25,125.3,119.15,124.2,119.15z"/>
		</g>
		<g>
			<ellipse class="st3" cx="43.68" cy="104.87" rx="3.6" ry="3.44"/>
			<ellipse class="st3" cx="56.16" cy="104.87" rx="3.6" ry="3.44"/>
			<ellipse class="st3" cx="68.76" cy="104.87" rx="3.6" ry="3.44"/>
			<ellipse class="st3" cx="81.24" cy="104.87" rx="3.6" ry="3.44"/>
			<ellipse class="st3" cx="93.72" cy="104.87" rx="3.6" ry="3.44"/>
			<ellipse class="st3" cx="106.32" cy="104.87" rx="3.6" ry="3.44"/>
		</g>
		<g>
			<ellipse class="st5" cx="56.6" cy="87.61" rx="4.44" ry="4.24"/>
			<ellipse class="st5" cx="75.07" cy="87.61" rx="4.44" ry="4.24"/>
			<ellipse class="st5" cx="93.43" cy="87.39" rx="4.44" ry="4.24"/>
		</g>
		<path class="st6" d="M115.13,55.1h-10.88c-0.7,0-1.28-0.55-1.28-1.22v-4.08c0-0.67,0.58-1.22,1.28-1.22h10.88
			c0.7,0,1.28,0.55,1.28,1.22v4.08C116.42,54.55,115.84,55.1,115.13,55.1z"/>
		<path class="st6" d="M115.13,64.6h-10.88c-0.7,0-1.28-0.55-1.28-1.22V59.3c0-0.67,0.58-1.22,1.28-1.22h10.88
			c0.7,0,1.28,0.55,1.28,1.22v4.08C116.42,64.05,115.84,64.6,115.13,64.6z"/>
		<path class="st5" d="M106.1,51.03h7.2c0.34,0,0.63,0.25,0.63,0.56v0.39c0,0.31-0.28,0.56-0.63,0.56h-7.2
			c-0.34,0-0.63-0.25-0.63-0.56v-0.39C105.47,51.28,105.75,51.03,106.1,51.03z"/>
		<path class="st5" d="M106.1,60.53h7.2c0.34,0,0.63,0.25,0.63,0.56v0.39c0,0.31-0.28,0.56-0.63,0.56h-7.2
			c-0.34,0-0.63-0.25-0.63-0.56v-0.39C105.47,60.78,105.75,60.53,106.1,60.53z"/>
	</g>
	<g class="st1">
		<g class="st7">
			<g>
				<path class="st5" d="M133,56.65c1.1,0,2-0.9,2-2v-12c0-1.1-0.9-2-2-2h-8v-10c0-1.1-0.9-2-2-2h-12c-1.1,0-2,0.9-2,2v10h-8v-18
					c0-3.31-2.69-6-6-6H55c-3.31,0-6,2.69-6,6v18h-8v-10c0-1.1-0.9-2-2-2H27c-1.1,0-2,0.9-2,2v10h-8c-1.1,0-2,0.9-2,2v12
					c0,1.1,0.9,2,2,2h2v64h-2c-1.1,0-2,0.9-2,2v12c0,1.1,0.9,2,2,2h116c1.1,0,2-0.9,2-2v-12c0-1.1-0.9-2-2-2h-2v-64H133z M113,32.65
					h8v8h-8V32.65z M53,22.65c0-1.1,0.9-2,2-2h40c1.1,0,2,0.9,2,2v18h-4v-14c0-1.1-0.9-2-2-2H59c-1.1,0-2,0.9-2,2v14h-4V22.65z
					 M89,28.65v12H61v-12H89z M29,32.65h8v8h-8V32.65z M131,132.65H19v-8h112V132.65z M23,120.65v-64h104v64H23z M19,52.65v-8h112v8
					H19z"/>
			</g>
		</g>
		<g class="st7">
			<g>
				<path class="st5" d="M71,68.65v-4H33c-1.1,0-2,0.9-2,2v44c0,1.1,0.9,2,2,2h26v-4H35v-40H71z"/>
			</g>
		</g>
		<g class="st7">
			<g>
				<path class="st5" d="M117,64.65H91v4h24v40H81v4h36c1.1,0,2-0.9,2-2v-44C119,65.55,118.1,64.65,117,64.65z"/>
			</g>
		</g>
		<g class="st7">
			<g>
				<path class="st5" d="M94.85,85.88c-0.31-0.75-1.04-1.23-1.85-1.23H81.56l5.38-21.52c0.27-1.07-0.39-2.16-1.46-2.42
					c-0.68-0.17-1.4,0.03-1.9,0.53l-28,28c-0.78,0.78-0.78,2.05,0,2.83c0.37,0.37,0.87,0.58,1.4,0.59l11.47,0.14l-5.39,21.38
					c-0.27,1.07,0.38,2.16,1.45,2.43c0.68,0.17,1.4-0.03,1.9-0.53l28-28C94.99,87.49,95.16,86.63,94.85,85.88z M68.71,108.11
					l4.23-16.8c0.27-1.07-0.38-2.16-1.45-2.43c-0.15-0.04-0.31-0.06-0.46-0.06l-9.25-0.11l19.54-19.54l-4.25,17
					c-0.26,1.07,0.4,2.15,1.47,2.42c0.15,0.04,0.31,0.06,0.47,0.06h9.17L68.71,108.11z"/>
			</g>
		</g>
		<g class="st7">
			<g>
				<polygon class="st5" points="47,76.65 47,72.65 43,72.65 43,76.65 39,76.65 39,80.65 43,80.65 43,84.65 47,84.65 47,80.65 
					51,80.65 51,76.65 				"/>
			</g>
		</g>
		<g class="st7">
			<g>
				<rect x="99" y="76.65" class="st5" width="12" height="4"/>
			</g>
		</g>
	</g>
	<g class="st1">
		<g class="st7">
			<path class="st5" d="M36.49,29.43c-7.28,0.35-13.3,6.16-13.98,13.58c-0.34,4.52,1.25,9.05,4.55,12.18
				c2.05,1.97,3.18,4.41,3.18,7.08v9.63c0,0.7,0.46,1.17,1.14,1.17h4.66v0.82c0,0.7,0.46,1.17,1.14,1.17s1.14-0.47,1.14-1.17v-0.82
				h4.66c0.57,0,1.14-0.47,1.14-1.05v-9.75c0-2.67,1.14-5.11,3.07-6.96c2.96-2.79,4.66-6.84,4.66-10.91
				C51.84,35.92,44.9,28.96,36.49,29.43z M32.62,63.89h9.21v2.21h-9.21V63.89z M32.62,70.75v-2.32h9.21v2.32H32.62z M45.58,53.56
				c-2.24,2.18-3.59,4.98-3.74,8.01h-9.25c-0.2-2.95-1.55-5.77-3.83-8.01c-2.84-2.67-4.21-6.39-3.86-10.33
				c0.57-6.27,5.57-11.15,11.71-11.5c7.05-0.35,12.96,5.46,12.96,12.65C49.56,47.88,48.09,51.13,45.58,53.56z"/>
			<path class="st5" d="M40.01,41.5l0.12-4.99c0-0.88-1.14-1.58-1.93-0.82L28.08,46.02C27.2,46.92,27.77,48,28.88,48h5.35
				l-0.46,5.34c0,1.2,1.18,1.53,1.93,0.93l10.58-10.8c0.66-0.58,0.44-1.97-0.8-1.97h-5.47L40.01,41.5L40.01,41.5z M36.26,50.44
				l0.34-3.37c0.09-0.65-0.22-1.27-1.14-1.27H31.6l6.14-6.27l-0.12,3.25c0,0.96,0.66,1.17,1.14,1.17h3.86L36.26,50.44z"/>
			<rect x="36.03" y="21.65" class="st5" width="2.27" height="4.87"/>
			<path class="st5" d="M22.31,27.47l3.37,3.44l-1.61,1.64l-3.37-3.44L22.31,27.47z"/>
			<rect x="15" y="43.13" class="st5" width="4.77" height="2.32"/>
			<rect x="54.57" y="43.13" class="st5" width="4.77" height="2.32"/>
			<path class="st5" d="M50.29,32.56l-1.61-1.64l3.37-3.44l1.61,1.64L50.29,32.56z"/>
		</g>
		<g class="st7">
			<path class="st5" d="M133.27,96.27h-31.19c-0.96,0-1.73,0.79-1.73,1.77v5.87L84.48,85.23c-2.63-3.1-6.46-4.88-10.48-4.88h-4.86
				c1.13-1.53,1.74-3.39,1.74-5.31v-7.75l0.73-0.37c2.44-1.25,3.43-4.28,2.21-6.77c-0.84-1.71-2.55-2.79-4.42-2.79h-1.99
				c-0.46,0-0.9,0.19-1.23,0.52L54.06,70.26c-0.32,0.33-0.51,0.78-0.51,1.25v8.84h-8.54c-7.72,0.01-13.98,6.4-13.99,14.28v37.02
				h3.47v-27.62c0.2,0.24,0.41,0.47,0.63,0.69l15.39,15.71c2.59,2.66,6.12,4.16,9.8,4.14h8.84v1.77c0,2.93,2.33,5.3,5.2,5.31h58.92
				c0.96,0,1.73-0.79,1.73-1.77V98.04C135,97.06,134.22,96.27,133.27,96.27z M98.96,120.87l-6.25-4.78c-0.62-0.47-1.46-0.47-2.08,0
				l-6.47,4.95h-1.16v-8.84h6.3c3.16-0.01,6.15,1.46,8.12,3.98l2.73,3.48c0.29,0.37,0.23,0.9-0.13,1.19
				c-0.15,0.12-0.33,0.19-0.52,0.19h-0.04C99.28,121.04,99.11,120.98,98.96,120.87z M93.41,121.04h-3.47l1.73-1.33L93.41,121.04z
				 M77.81,108.65v-7.67l6.58,7.67H77.81z M57.02,82.12c1.98,1.52,4.5,2.1,6.93,1.6v0.18c0,1.95-1.55,3.54-3.47,3.54
				s-3.47-1.58-3.47-3.54V82.12z M68.13,60.89h1.27c0.82,0,1.48,0.68,1.48,1.51c0,0.57-0.32,1.1-0.82,1.35l-1.32,0.68h-4.07
				L68.13,60.89z M57.02,72.24l4.18-4.27h6.21v7.08c0,2.93-2.33,5.31-5.2,5.31c-2.87,0-5.2-2.38-5.2-5.31V72.24z M52.96,117.93
				l-15.39-15.71c-4.11-4.19-4.11-10.99,0-15.19c1.97-2.01,4.65-3.15,7.44-3.15h8.54c0,3.91,3.1,7.08,6.93,7.08s6.93-3.17,6.93-7.08
				h6.59c3.02,0,5.88,1.34,7.86,3.66l18.48,21.76v4.91l-0.2-0.26c-2.62-3.37-6.61-5.32-10.83-5.31H89L77.38,95.11
				c-0.63-0.74-1.73-0.81-2.45-0.17c-0.38,0.34-0.59,0.82-0.59,1.33v12.38H62.93L51.31,96.79l-2.45,2.5l12.13,12.38
				c0.33,0.33,0.77,0.52,1.23,0.52h17.33v8.84H60.31C57.55,121.04,54.9,119.92,52.96,117.93z M72.61,126.34v-1.77h27.73v3.54H74.35
				C73.39,128.11,72.62,127.32,72.61,126.34z M131.53,128.11h-27.73v-28.3h27.73V128.11z"/>
			<path class="st5" d="M117.67,119.27c2.87,0,5.2-2.38,5.2-5.31s-2.33-5.31-5.2-5.31s-5.2,2.38-5.2,5.31
				C112.48,116.89,114.8,119.26,117.67,119.27z M117.67,112.19c0.96,0,1.73,0.79,1.73,1.77s-0.78,1.77-1.73,1.77
				s-1.73-0.79-1.73-1.77C115.94,112.98,116.71,112.19,117.67,112.19z"/>
			<path class="st5" d="M129.8,25.51H89.94c-2.87,0-5.2,2.38-5.2,5.31v3.54v3.54v38.92c0,2.93,2.33,5.3,5.2,5.31h39.86
				c2.87,0,5.2-2.38,5.2-5.31V30.82C135,27.89,132.67,25.52,129.8,25.51z M131.53,76.81c0,0.98-0.78,1.77-1.73,1.77H89.94
				c-0.96,0-1.73-0.79-1.73-1.77V30.82c0-0.98,0.78-1.77,1.73-1.77h39.86c0.96,0,1.73,0.79,1.73,1.77V76.81z"/>
			<rect x="91.68" y="37.9" class="st5" width="3.47" height="3.54"/>
			<rect x="91.68" y="44.97" class="st5" width="3.47" height="3.54"/>
			<rect x="91.68" y="52.05" class="st5" width="3.47" height="3.54"/>
			<path class="st5" d="M98.61,59.12h19.06c0.96,0,1.73-0.79,1.73-1.77v-5.31h3.47c0.96,0,1.73-0.79,1.73-1.77V43.2
				c0-0.98-0.78-1.77-1.73-1.77h-8.66v-5.31c0-0.98-0.78-1.77-1.73-1.77H98.61c-0.96,0-1.73,0.79-1.73,1.77v21.23
				C96.88,58.33,97.65,59.12,98.61,59.12z M115.94,55.59h-15.6v-3.54h15.6V55.59z M121.14,48.51h-20.8v-3.54h20.8V48.51z
				 M100.34,37.9h10.4v3.54h-10.4V37.9z"/>
			<rect x="98.61" y="62.66" class="st5" width="5.2" height="3.54"/>
			<rect x="107.27" y="62.66" class="st5" width="19.06" height="3.54"/>
			<rect x="93.41" y="69.74" class="st5" width="19.06" height="3.54"/>
			<rect x="115.94" y="69.74" class="st5" width="10.4" height="3.54"/>
		</g>
		<polyline class="st8" points="85.74,34.05 62.64,34.05 50.84,39.53 		"/>
	</g>
	<g class="st1">
		<g class="st7">
			<path class="st5" d="M441.62,11H448c0.98,0,1.78-0.82,1.78-1.83s-0.8-1.83-1.78-1.83h-6.38c-0.98,0-1.78,0.82-1.78,1.83
				S440.64,11,441.62,11z"/>
			<path class="st5" d="M491.79,9.16c0,1.01,0.8,1.83,1.78,1.83h6.38c0.98,0,1.78-0.82,1.78-1.83s-0.8-1.83-1.78-1.83h-6.38
				C492.58,7.33,491.79,8.15,491.79,9.16z"/>
			<path class="st5" d="M486.89-5.58c0.46,0,0.91-0.18,1.26-0.54l4.51-4.64c0.69-0.72,0.69-1.87,0-2.59c-0.7-0.71-1.82-0.71-2.52,0
				l-4.51,4.64c-0.69,0.72-0.69,1.87,0,2.59C485.98-5.76,486.44-5.58,486.89-5.58L486.89-5.58z"/>
			<path class="st5" d="M453.42-6.12c0.35,0.36,0.8,0.54,1.26,0.54s0.91-0.18,1.26-0.54c0.69-0.72,0.69-1.87,0-2.59l-4.51-4.64
				c-0.69-0.72-1.82-0.72-2.52,0c-0.69,0.72-0.69,1.87,0,2.59L453.42-6.12z"/>
			<path class="st5" d="M470.78-12.45c0.98,0,1.78-0.82,1.78-1.83v-6.56c0-1.01-0.8-1.83-1.78-1.83c-0.98,0-1.78,0.82-1.78,1.83
				v6.56C469-13.27,469.8-12.45,470.78-12.45z"/>
			<path class="st5" d="M529.77,66.03l-0.73-4.76c0-0.01,0-0.01,0-0.02c0-0.01,0-0.01,0-0.02l-4.97-28.43
				c-0.01-0.04-0.01-0.07-0.02-0.11l-1.89-10.85c0-0.03-0.01-0.05-0.02-0.08c-0.6-2.75-2.91-4.71-5.61-4.74c-0.01,0-0.02,0-0.02,0
				l-30.74,0c1.2-2.42,1.84-5.12,1.84-7.86c0-9.54-7.54-17.31-16.82-17.31c-9.27,0-16.82,7.76-16.82,17.31
				c0,2.74,0.64,5.44,1.84,7.86h-16.47c-0.98,0-1.78,0.82-1.78,1.83c0,1.01,0.8,1.83,1.78,1.83h6.78l-1.42,10.57h-23.31l1.52-8.72
				c0.21-0.91,1.02-1.83,2.16-1.85l6.05,0.01h0c0.98,0,1.78-0.82,1.78-1.83c0-1.01-0.79-1.83-1.78-1.83l-6.07-0.01
				c-0.01,0-0.02,0-0.03,0c-2.7,0.04-5,1.99-5.61,4.74c-0.01,0.03-0.01,0.05-0.02,0.08l-6.88,39.38c0,0.01,0,0.01,0,0.02
				c0,0.01,0,0.01,0,0.02l-0.73,4.76c-0.3,1.94,0.15,3.76,1.29,5.12c1.19,1.44,2.99,2.23,5.06,2.23h44.76l0,6.55h-3.4
				c-3.31,0-6,2.77-6,6.18v2.82h-3.2c-3.51,0-6.36,2.93-6.36,6.54v4c0,1.58,1.25,2.87,2.79,2.87h48.09c1.54,0,2.79-1.29,2.79-2.87
				v-4c0-3.6-2.85-6.54-6.36-6.54h-3.2V86.1c0-3.41-2.69-6.18-6-6.18h-3.41v-6.55h13.33c0.98,0,1.78-0.82,1.78-1.83
				c0-1.01-0.8-1.83-1.78-1.83h-73.83c-1.01,0-1.85-0.34-2.36-0.95c-0.45-0.54-0.62-1.29-0.48-2.17l0.5-3.22h109.95l0.5,3.22
				c0.14,0.87-0.03,1.62-0.48,2.17c-0.5,0.61-1.34,0.95-2.36,0.95h-23.23c-0.98,0-1.78,0.82-1.78,1.83c0,1.01,0.8,1.83,1.78,1.83
				h23.23c2.07,0,3.87-0.79,5.06-2.23C529.61,69.78,530.07,67.96,529.77,66.03L529.77,66.03z M494.06,95.46v3.21H447.5v-3.21
				c0-1.59,1.26-2.88,2.8-2.88h4.98h30.99h4.98C492.8,92.58,494.06,93.87,494.06,95.46z M484.5,86.1v2.82h-27.43V86.1
				c0-1.39,1.1-2.52,2.44-2.52h5.18h0h17.36C483.4,83.58,484.5,84.71,484.5,86.1z M475.09,79.92h-8.61l0-6.55h8.62L475.09,79.92
				L475.09,79.92z M469,49.15v10.57h-24.53l1.42-10.57H469z M446.38,45.49l1.42-10.57H469v10.57H446.38z M472.56,49.15h23.11
				l1.42,10.57h-24.53L472.56,49.15z M472.56,45.49V34.92h21.2l1.42,10.57H472.56z M472.56,20.69h9.94c0.01,0,0.02,0,0.03,0l9.32,0
				l1.42,10.57h-20.71V20.69z M497.36,34.92h23.46l1.85,10.57h-23.89L497.36,34.92z M518.65,22.54l1.52,8.72h-23.31l-1.42-10.57
				l21.04,0C517.64,20.71,518.44,21.63,518.65,22.54L518.65,22.54z M457.52,9.16c0-7.52,5.95-13.64,13.26-13.64
				c7.31,0,13.26,6.12,13.26,13.64c0,2.86-0.83,5.56-2.42,7.86l-10.84,0h-10.84C458.36,14.73,457.52,12.02,457.52,9.16L457.52,9.16z
				 M449.71,20.69h9.35H469v10.57h-20.71L449.71,20.69z M444.21,34.92l-1.42,10.57H418.9l1.85-10.57L444.21,34.92L444.21,34.92z
				 M418.26,49.15h24.04l-1.4,10.42c-0.01,0.05-0.01,0.1-0.01,0.14h-24.47L418.26,49.15z M500.68,59.72c0-0.05-0.01-0.09-0.01-0.14
				l-1.4-10.42h24.04l1.85,10.57H500.68z"/>
		</g>
		<path class="st2" d="M596.72,99.68c-0.03-2.09-1.44-3.84-3.33-4.33V77.26c0-0.04,0-0.08-0.01-0.12l5.73-5.9
			c0.42-0.44,0.42-1.14,0-1.58c-0.42-0.44-1.11-0.44-1.53,0l-18.12,18.64c-0.21,0.21-0.48,0.33-0.77,0.33s-0.56-0.12-0.77-0.33
			c-0.21-0.21-0.32-0.49-0.32-0.79c0-0.3,0.11-0.58,0.32-0.79l23.13-23.8c0.42-0.44,1.11-0.44,1.53,0c0.42,0.44,0.42,1.14,0,1.58
			l-1.74,1.79c-0.42,0.44-0.42,1.14,0,1.58c0.42,0.44,1.11,0.44,1.53,0l1.74-1.79c1.27-1.31,1.27-3.43,0-4.74
			c-1.27-1.31-3.34-1.31-4.6,0l-23.13,23.8c-0.62,0.63-0.95,1.47-0.95,2.37s0.34,1.74,0.95,2.37c0.62,0.63,1.43,0.98,2.3,0.98
			s1.69-0.35,2.3-0.98l10.22-10.52v15.98c-1.89,0.49-3.29,2.24-3.33,4.33h-13.4c-0.03-2.09-1.44-3.84-3.33-4.33V77.26
			c0-0.04,0-0.08-0.01-0.12l10.74-11.05v0c1.27-1.31,1.27-3.43,0-4.74c-1.27-1.31-3.34-1.31-4.6,0l-23.13,23.8
			c-0.62,0.63-0.95,1.47-0.95,2.37s0.34,1.74,0.95,2.37c0.62,0.63,1.43,0.98,2.3,0.98s1.69-0.35,2.3-0.98L569,79.37v15.98
			c-1.89,0.49-3.29,2.24-3.33,4.33h-13.4c-0.03-2.09-1.44-3.84-3.33-4.33V77.26c0-0.04,0-0.08-0.01-0.12l10.74-11.05
			c1.27-1.31,1.27-3.43,0-4.74c-1.27-1.31-3.34-1.31-4.6,0l-17.29,17.79c-0.42,0.44-0.42,1.14,0,1.58c0.42,0.44,1.11,0.44,1.53,0
			l17.29-17.79c0.42-0.44,1.11-0.44,1.53,0c0.42,0.44,0.42,1.14,0,1.58l-23.13,23.8c-0.21,0.21-0.48,0.33-0.77,0.33
			s-0.56-0.12-0.77-0.33c-0.21-0.21-0.32-0.49-0.32-0.79s0.11-0.58,0.32-0.79l2.56-2.64c0.42-0.44,0.42-1.14,0-1.58
			c-0.42-0.44-1.11-0.44-1.53,0l-2.56,2.64c-0.62,0.63-0.95,1.47-0.95,2.37s0.34,1.74,0.95,2.37c0.62,0.63,1.43,0.98,2.3,0.98
			s1.69-0.35,2.3-0.98l10.22-10.52v15.98c-1.89,0.49-3.29,2.24-3.33,4.33L596.72,99.68z M557.24,88.31
			c-0.21,0.21-0.48,0.33-0.77,0.33s-0.56-0.12-0.77-0.33c-0.21-0.21-0.32-0.49-0.32-0.79c0-0.3,0.11-0.58,0.32-0.79l23.13-23.8
			c0.21-0.22,0.49-0.33,0.77-0.33c0.28,0,0.56,0.11,0.77,0.33c0.42,0.44,0.42,1.14,0,1.58L557.24,88.31z M592.31,97.44
			c1.21,0,2.2,1,2.24,2.23h-4.48C590.11,98.44,591.1,97.44,592.31,97.44z M570.08,97.44c1.21,0,2.2,1,2.24,2.23h-4.48
			C567.88,98.44,568.87,97.44,570.08,97.44z M547.85,97.44c1.21,0,2.2,1,2.24,2.23h-4.48C545.65,98.44,546.64,97.44,547.85,97.44z"
			/>
		<line class="st9" x1="412.01" y1="100.69" x2="611.71" y2="100.69"/>
	</g>
</g>
</svg>
