<?xml version="1.0" encoding="utf-8"?>
<!-- Generator: Adobe Illustrator 25.4.1, SVG Export Plug-In . SVG Version: 6.00 Build 0)  -->
<svg version="1.1" id="Layer_1" xmlns="http://www.w3.org/2000/svg" xmlns:xlink="http://www.w3.org/1999/xlink" x="0px" y="0px"
	 viewBox="0 0 735 440" style="enable-background:new 0 0 735 440;" xml:space="preserve">
<style type="text/css">
	.st0{display:none;fill:#A4A4A4;}
	.st1{fill:#5E5E5E;}
	.st2{fill:none;stroke:#5E5E5E;stroke-width:3;stroke-linecap:round;stroke-linejoin:round;stroke-miterlimit:10;}
	.st3{fill:none;stroke:#5E5E5E;stroke-width:4;stroke-linecap:round;stroke-linejoin:round;stroke-miterlimit:10;}
	.st4{fill:none;stroke:#5E5E5E;stroke-width:2;stroke-linecap:round;stroke-linejoin:round;stroke-miterlimit:10;}
	.st5{fill:none;stroke:#5E5E5E;stroke-miterlimit:10;}
	.st6{fill:#E8E7E6;stroke:#5E5E5E;stroke-width:3;stroke-linecap:round;stroke-linejoin:round;stroke-miterlimit:10;}
	.st7{fill:none;stroke:#26B07B;stroke-width:6;stroke-linecap:round;stroke-miterlimit:10;}
	.st8{fill:#FFFFFF;stroke:#26B07B;stroke-width:3;stroke-miterlimit:10;}
	.st9{fill:none;stroke:#26B07B;stroke-width:4;stroke-linecap:round;stroke-miterlimit:10;}
</style>
<g id="레이어_1">
</g>
<rect x="255.9" y="145.9" class="st0" width="150" height="671.3"/>
<g>
	<path class="st1" d="M533,42h34.6c1.1,0,1.9-0.8,1.9-1.9V17.2c0-1-0.9-1.9-1.9-1.9H533c-1.1,0-1.9,0.9-1.9,1.9v22.8
		C531,41.2,531.9,42,533,42z M534.9,38.2v-3.8h30.8v3.8H534.9z M565.7,19.2v11.4h-30.8V19.2H565.7z"/>
	<path class="st1" d="M583,7.7h-65.4c-9.5,0-17.3,7.7-17.3,17.1v103.3c0,5.2,4.3,9.5,9.6,9.5h80.8c5.3,0,9.6-4.3,9.6-9.5V24.9
		C600.3,15.4,592.5,7.7,583,7.7z M596.4,128.2c0,3.1-2.6,5.7-5.8,5.7h-80.8c-3.2,0-5.8-2.6-5.8-5.7V24.9c0-7.4,6-13.3,13.5-13.3H583
		c7.4,0,13.5,6,13.5,13.3L596.4,128.2L596.4,128.2z"/>
	<path class="st1" d="M521.4,26.8c3.2,0,5.8-2.6,5.8-5.7s-2.6-5.7-5.8-5.7s-5.8,2.6-5.8,5.7S518.2,26.8,521.4,26.8z M521.4,19.2
		c1.1,0,1.9,0.9,1.9,1.9s-0.9,1.9-1.9,1.9s-1.9-0.9-1.9-1.9S520.4,19.2,521.4,19.2z"/>
	<path class="st1" d="M521.4,42c3.2,0,5.8-2.6,5.8-5.7c0-3.2-2.6-5.7-5.8-5.7s-5.8,2.6-5.8,5.7C515.7,39.5,518.2,42,521.4,42z
		 M521.4,34.4c1.1,0,1.9,0.8,1.9,1.9c0,1-0.9,1.9-1.9,1.9s-1.9-0.8-1.9-1.9C519.5,35.2,520.4,34.4,521.4,34.4z"/>
	<path class="st1" d="M579.1,15.4c-3.2,0-5.8,2.6-5.8,5.7s2.6,5.7,5.8,5.7s5.8-2.6,5.8-5.7S582.3,15.4,579.1,15.4z M579.1,23
		c-1.1,0-1.9-0.9-1.9-1.9s0.9-1.9,1.9-1.9s1.9,0.9,1.9,1.9C581,22.1,580.2,23,579.1,23z"/>
	<path class="st1" d="M579.1,30.6c-3.2,0-5.8,2.6-5.8,5.7s2.6,5.7,5.8,5.7s5.8-2.6,5.8-5.7C584.9,33.2,582.3,30.6,579.1,30.6z
		 M579.1,38.2c-1.1,0-1.9-0.8-1.9-1.9c0-1,0.9-1.9,1.9-1.9s1.9,0.8,1.9,1.9C581,37.3,580.2,38.2,579.1,38.2z"/>
	<path class="st1" d="M575.3,45.8h-50c-5.3,0-9.6,4.3-9.6,9.5v11.4c0,1.1,0.9,1.9,1.9,1.9s1.9-0.8,1.9-1.9V55.3
		c0-3.2,2.6-5.7,5.8-5.7h50c3.2,0,5.8,2.6,5.8,5.7v30.5c0,3.2-2.6,5.7-5.8,5.7h-50c-3.2,0-5.8-2.6-5.8-5.7V74.4
		c0-1.1-0.9-1.9-1.9-1.9s-1.9,0.8-1.9,1.9v11.4c0,5.2,4.3,9.5,9.6,9.5h50c5.3,0,9.6-4.3,9.6-9.5V55.3
		C584.9,50.1,580.6,45.8,575.3,45.8z"/>
	<path class="st1" d="M575.3,87.7c1.1,0,1.9-0.8,1.9-1.9V55.3c0-1-0.9-1.9-1.9-1.9h-50c-1.1,0-1.9,0.8-1.9,1.9v30.5
		c0,1.1,0.9,1.9,1.9,1.9H575.3z M527.2,83.9V72.5h46.2v11.4H527.2z M573.3,57.2v11.4h-46.2V57.2H573.3z"/>
</g>
<path class="st2" d="M154.8,69.2v-7.9c0-2.3,1.7-4.2,3.8-4.2H196c2.1,0,3.8,1.9,3.8,4.2V83c0,2.3-1.7,4.2-3.8,4.2h-37.4
	c-2.1,0-3.8-1.9-3.8-4.2v-8.8"/>
<g>
	<path class="st3" d="M233.9,130.2H122.3c-2.3,0-4.2-2-4.2-4.5V49.8c0-2.5,1.9-4.5,4.2-4.5h111.6c2.3,0,4.2,2,4.2,4.5v75.9
		C238.1,128.2,236.2,130.2,233.9,130.2z"/>
	<path class="st1" d="M128.9,125.2L128.9,125.2c-1.1,0-2-0.9-2-2v-76c0-1.1,0.9-2,2-2l0,0c1.1,0,2,0.9,2,2v76
		C130.9,124.3,130,125.2,128.9,125.2z"/>
	<path class="st1" d="M227.3,130.2L227.3,130.2c-1.1,0-2-0.9-2-2v-76c0-1.1,0.9-2,2-2l0,0c1.1,0,2,0.9,2,2v76
		C229.3,129.3,228.4,130.2,227.3,130.2z"/>
</g>
<g>
	<ellipse class="st2" cx="146.8" cy="115.9" rx="3.6" ry="3.4"/>
	<ellipse class="st2" cx="159.3" cy="115.9" rx="3.6" ry="3.4"/>
	<ellipse class="st2" cx="171.9" cy="115.9" rx="3.6" ry="3.4"/>
	<ellipse class="st2" cx="184.4" cy="115.9" rx="3.6" ry="3.4"/>
	<ellipse class="st2" cx="196.8" cy="115.9" rx="3.6" ry="3.4"/>
	<ellipse class="st2" cx="209.4" cy="115.9" rx="3.6" ry="3.4"/>
</g>
<g>
	<ellipse class="st1" cx="159.7" cy="98.7" rx="4.4" ry="4.2"/>
	<ellipse class="st1" cx="178.2" cy="98.7" rx="4.4" ry="4.2"/>
	<ellipse class="st1" cx="196.6" cy="98.4" rx="4.4" ry="4.2"/>
</g>
<path class="st4" d="M218.2,66.2h-10.9c-0.7,0-1.3-0.6-1.3-1.2v-4.1c0-0.7,0.6-1.2,1.3-1.2h10.9c0.7,0,1.3,0.5,1.3,1.2v4.1
	C219.5,65.6,218.9,66.2,218.2,66.2z"/>
<path class="st4" d="M218.2,75.7h-10.9c-0.7,0-1.3-0.6-1.3-1.2v-4.1c0-0.7,0.6-1.2,1.3-1.2h10.9c0.7,0,1.3,0.6,1.3,1.2v4.1
	C219.5,75.1,218.9,75.7,218.2,75.7z"/>
<path class="st1" d="M209.2,62.1h7.2c0.3,0,0.6,0.2,0.6,0.6V63c0,0.3-0.3,0.6-0.6,0.6h-7.2c-0.3,0-0.6-0.2-0.6-0.6v-0.4
	C208.6,62.3,208.9,62.1,209.2,62.1z"/>
<path class="st1" d="M209.2,71.6h7.2c0.3,0,0.6,0.2,0.6,0.6v0.4c0,0.3-0.3,0.6-0.6,0.6h-7.2c-0.3,0-0.6-0.2-0.6-0.6v-0.4
	C208.6,71.8,208.9,71.6,209.2,71.6z"/>
<g>
	<g>
		<g>
			<path class="st1" d="M425,261.3c1.1,0,2-0.9,2-2v-12c0-1.1-0.9-2-2-2h-8v-10c0-1.1-0.9-2-2-2h-12c-1.1,0-2,0.9-2,2v10h-8v-18
				c0-3.3-2.7-6-6-6h-40c-3.3,0-6,2.7-6,6v18h-8v-10c0-1.1-0.9-2-2-2h-12c-1.1,0-2,0.9-2,2v10h-8c-1.1,0-2,0.9-2,2v12
				c0,1.1,0.9,2,2,2h2v64h-2c-1.1,0-2,0.9-2,2v12c0,1.1,0.9,2,2,2h116c1.1,0,2-0.9,2-2v-12c0-1.1-0.9-2-2-2h-2v-64H425z M405,237.3
				h8v8h-8V237.3z M345,227.3c0-1.1,0.9-2,2-2h40c1.1,0,2,0.9,2,2v18h-4v-14c0-1.1-0.9-2-2-2h-32c-1.1,0-2,0.9-2,2v14h-4V227.3z
				 M381,233.3v12h-28v-12H381z M321,237.3h8v8h-8V237.3z M423,337.3H311v-8h112V337.3z M315,325.3v-64h104v64H315z M311,257.3v-8
				h112v8H311z"/>
		</g>
	</g>
	<g>
		<g>
			<path class="st1" d="M363,273.3v-4h-38c-1.1,0-2,0.9-2,2v44c0,1.1,0.9,2,2,2h26v-4h-24v-40H363z"/>
		</g>
	</g>
	<g>
		<g>
			<path class="st1" d="M409,269.3h-26v4h24v40h-34v4h36c1.1,0,2-0.9,2-2v-44C411,270.2,410.1,269.3,409,269.3z"/>
		</g>
	</g>
	<g>
		<g>
			<path class="st1" d="M386.9,290.5c-0.3-0.8-1-1.2-1.9-1.2h-11.4l5.4-21.5c0.3-1.1-0.4-2.2-1.5-2.4c-0.7-0.2-1.4,0-1.9,0.5l-28,28
				c-0.8,0.8-0.8,2,0,2.8c0.4,0.4,0.9,0.6,1.4,0.6l11.5,0.1l-5.4,21.4c-0.3,1.1,0.4,2.2,1.5,2.4c0.7,0.2,1.4,0,1.9-0.5l28-28
				C387,292.1,387.2,291.3,386.9,290.5z M360.8,312.8L365,296c0.3-1.1-0.4-2.2-1.5-2.4c-0.1,0-0.3-0.1-0.5-0.1l-9.2-0.1l19.5-19.5
				l-4.2,17c-0.3,1.1,0.4,2.1,1.5,2.4c0.1,0,0.3,0.1,0.5,0.1h9.2L360.8,312.8z"/>
		</g>
	</g>
	<g>
		<g>
			<polygon class="st1" points="339,281.3 339,277.3 335,277.3 335,281.3 331,281.3 331,285.3 335,285.3 335,289.3 339,289.3 
				339,285.3 343,285.3 343,281.3 			"/>
		</g>
	</g>
	<g>
		<g>
			<rect x="391" y="281.3" class="st1" width="12" height="4"/>
		</g>
	</g>
</g>
<g>
	<g>
		<path class="st1" d="M595.8,293.4c-7.3,0.4-13.3,6.2-14,13.6c-0.3,4.5,1.2,9,4.5,12.2c2,2,3.2,4.4,3.2,7.1v9.6
			c0,0.7,0.5,1.2,1.1,1.2h4.7v0.8c0,0.7,0.5,1.2,1.1,1.2s1.1-0.5,1.1-1.2V337h4.7c0.6,0,1.1-0.5,1.1-1v-9.8c0-2.7,1.1-5.1,3.1-7
			c3-2.8,4.7-6.8,4.7-10.9C611.2,299.9,604.3,292.9,595.8,293.4z M592,327.9h9.2v2.2H592V327.9z M592,334.7v-2.3h9.2v2.3H592z
			 M604.9,317.5c-2.2,2.2-3.6,5-3.7,8H592c-0.2-3-1.5-5.8-3.8-8c-2.8-2.7-4.2-6.4-3.9-10.3c0.6-6.3,5.6-11.1,11.7-11.5
			c7-0.4,13,5.5,13,12.6C608.9,311.8,607.5,315.1,604.9,317.5z"/>
		<path class="st1" d="M599.4,305.5l0.1-5c0-0.9-1.1-1.6-1.9-0.8L587.4,310c-0.9,0.9-0.3,2,0.8,2h5.3l-0.5,5.3
			c0,1.2,1.2,1.5,1.9,0.9l10.6-10.8c0.7-0.6,0.4-2-0.8-2L599.4,305.5L599.4,305.5L599.4,305.5z M595.6,314.4l0.3-3.4
			c0.1-0.6-0.2-1.3-1.1-1.3H591l6.1-6.3l-0.1,3.2c0,1,0.7,1.2,1.1,1.2h3.9L595.6,314.4z"/>
		<rect x="595.4" y="285.6" class="st1" width="2.3" height="4.9"/>
		<path class="st1" d="M581.7,291.4l3.4,3.4l-1.6,1.6l-3.4-3.4L581.7,291.4z"/>
		<rect x="574.4" y="307.1" class="st1" width="4.8" height="2.3"/>
		<rect x="613.9" y="307.1" class="st1" width="4.8" height="2.3"/>
		<path class="st1" d="M609.7,296.5l-1.6-1.6l3.4-3.4l1.6,1.6L609.7,296.5z"/>
	</g>
	<g>
		<path class="st1" d="M692.6,360.2h-31.2c-1,0-1.7,0.8-1.7,1.8v5.9l-15.9-18.7c-2.6-3.1-6.5-4.9-10.5-4.9h-4.9
			c1.1-1.5,1.7-3.4,1.7-5.3v-7.8l0.7-0.4c2.4-1.2,3.4-4.3,2.2-6.8c-0.8-1.7-2.5-2.8-4.4-2.8h-2c-0.5,0-0.9,0.2-1.2,0.5l-12.1,12.4
			c-0.3,0.3-0.5,0.8-0.5,1.2v8.8h-8.5c-7.7,0-14,6.4-14,14.3v37h3.5V368c0.2,0.2,0.4,0.5,0.6,0.7l15.4,15.7c2.6,2.7,6.1,4.2,9.8,4.1
			h8.8v1.8c0,2.9,2.3,5.3,5.2,5.3h58.9c1,0,1.7-0.8,1.7-1.8V362C694.4,361,693.6,360.2,692.6,360.2z M658.3,384.8l-6.2-4.8
			c-0.6-0.5-1.5-0.5-2.1,0l-6.5,5h-1.2v-8.8h6.3c3.2,0,6.2,1.5,8.1,4l2.7,3.5c0.3,0.4,0.2,0.9-0.1,1.2c-0.2,0.1-0.3,0.2-0.5,0.2h0
			C658.6,385,658.5,384.9,658.3,384.8z M652.8,385h-3.5l1.7-1.3L652.8,385z M637.2,372.6v-7.7l6.6,7.7H637.2z M616.4,346.1
			c2,1.5,4.5,2.1,6.9,1.6v0.2c0,2-1.5,3.5-3.5,3.5c-1.9,0-3.5-1.6-3.5-3.5L616.4,346.1L616.4,346.1z M627.5,324.9h1.3
			c0.8,0,1.5,0.7,1.5,1.5c0,0.6-0.3,1.1-0.8,1.4l-1.3,0.7H624L627.5,324.9z M616.4,336.2l4.2-4.3h6.2v7.1c0,2.9-2.3,5.3-5.2,5.3
			s-5.2-2.4-5.2-5.3L616.4,336.2L616.4,336.2z M612.3,381.9l-15.4-15.7c-4.1-4.2-4.1-11,0-15.2c2-2,4.7-3.1,7.4-3.1h8.5
			c0,3.9,3.1,7.1,6.9,7.1s6.9-3.2,6.9-7.1h6.6c3,0,5.9,1.3,7.9,3.7l18.5,21.8v4.9l-0.2-0.3c-2.6-3.4-6.6-5.3-10.8-5.3h-0.3
			L636.7,359c-0.6-0.7-1.7-0.8-2.5-0.2c-0.4,0.3-0.6,0.8-0.6,1.3v12.4h-11.4l-11.6-11.9l-2.5,2.5l12.1,12.4c0.3,0.3,0.8,0.5,1.2,0.5
			h17.3v8.8h-19.2C616.9,385,614.3,383.9,612.3,381.9z M632,390.3v-1.8h27.7v3.5h-26C632.8,392.1,632,391.3,632,390.3z M690.9,392.1
			h-27.7v-28.3h27.7V392.1z"/>
		<path class="st1" d="M677,383.2c2.9,0,5.2-2.4,5.2-5.3s-2.3-5.3-5.2-5.3s-5.2,2.4-5.2,5.3C671.8,380.8,674.2,383.2,677,383.2z
			 M677,376.1c1,0,1.7,0.8,1.7,1.8c0,1-0.8,1.8-1.7,1.8s-1.7-0.8-1.7-1.8C675.3,376.9,676.1,376.1,677,376.1z"/>
		<path class="st1" d="M689.2,289.5h-39.9c-2.9,0-5.2,2.4-5.2,5.3v3.5v3.5v38.9c0,2.9,2.3,5.3,5.2,5.3h39.9c2.9,0,5.2-2.4,5.2-5.3
			v-46C694.4,291.8,692,289.5,689.2,289.5z M690.9,340.8c0,1-0.8,1.8-1.7,1.8h-39.9c-1,0-1.7-0.8-1.7-1.8v-46c0-1,0.8-1.8,1.7-1.8
			h39.9c1,0,1.7,0.8,1.7,1.8L690.9,340.8L690.9,340.8z"/>
		<rect x="651" y="301.9" class="st1" width="3.5" height="3.5"/>
		<rect x="651" y="308.9" class="st1" width="3.5" height="3.5"/>
		<rect x="651" y="316" class="st1" width="3.5" height="3.5"/>
		<path class="st1" d="M658,323.1H677c1,0,1.7-0.8,1.7-1.8V316h3.5c1,0,1.7-0.8,1.7-1.8v-7.1c0-1-0.8-1.8-1.7-1.8h-8.7v-5.3
			c0-1-0.8-1.8-1.7-1.8H658c-1,0-1.7,0.8-1.7,1.8v21.2C656.2,322.3,657,323.1,658,323.1z M675.3,319.5h-15.6V316h15.6V319.5z
			 M680.5,312.5h-20.8v-3.5h20.8V312.5z M659.7,301.9h10.4v3.5h-10.4V301.9z"/>
		<rect x="658" y="326.6" class="st1" width="5.2" height="3.5"/>
		<rect x="666.6" y="326.6" class="st1" width="19.1" height="3.5"/>
		<rect x="652.8" y="333.7" class="st1" width="19.1" height="3.5"/>
		<rect x="675.3" y="333.7" class="st1" width="10.4" height="3.5"/>
	</g>
	<polyline class="st5" points="645.1,298 622,298 610.2,303.5 	"/>
</g>
<g>
	<g>
		<path class="st1" d="M59.8,316.7h6.4c1,0,1.8-0.8,1.8-1.8s-0.8-1.8-1.8-1.8h-6.4c-1,0-1.8,0.8-1.8,1.8S58.8,316.7,59.8,316.7z"/>
		<path class="st1" d="M109.9,314.9c0,1,0.8,1.8,1.8,1.8h6.4c1,0,1.8-0.8,1.8-1.8s-0.8-1.8-1.8-1.8h-6.4
			C110.8,313,109.9,313.8,109.9,314.9z"/>
		<path class="st1" d="M105.1,300.1c0.5,0,0.9-0.2,1.3-0.5l4.5-4.6c0.7-0.7,0.7-1.9,0-2.6c-0.7-0.7-1.8-0.7-2.5,0l-4.5,4.6
			c-0.7,0.7-0.7,1.9,0,2.6C104.2,299.9,104.6,300.1,105.1,300.1L105.1,300.1z"/>
		<path class="st1" d="M71.6,299.6c0.3,0.4,0.8,0.5,1.3,0.5s0.9-0.2,1.3-0.5c0.7-0.7,0.7-1.9,0-2.6l-4.5-4.6c-0.7-0.7-1.8-0.7-2.5,0
			c-0.7,0.7-0.7,1.9,0,2.6L71.6,299.6z"/>
		<path class="st1" d="M88.9,293.2c1,0,1.8-0.8,1.8-1.8v-6.6c0-1-0.8-1.8-1.8-1.8c-1,0-1.8,0.8-1.8,1.8v6.6
			C87.2,292.4,88,293.2,88.9,293.2z"/>
		<path class="st1" d="M147.9,371.7l-0.7-4.8c0,0,0,0,0,0c0,0,0,0,0,0l-5-28.4c0,0,0-0.1,0-0.1l-1.9-10.9c0,0,0,0,0-0.1
			c-0.6-2.8-2.9-4.7-5.6-4.7c0,0,0,0,0,0h-30.7c1.2-2.4,1.8-5.1,1.8-7.9c0-9.5-7.5-17.3-16.8-17.3s-16.8,7.8-16.8,17.3
			c0,2.7,0.6,5.4,1.8,7.9H57.5c-1,0-1.8,0.8-1.8,1.8s0.8,1.8,1.8,1.8h6.8l-1.4,10.6H39.5l1.5-8.7c0.2-0.9,1-1.8,2.2-1.9l6,0l0,0
			c1,0,1.8-0.8,1.8-1.8c0-1-0.8-1.8-1.8-1.8l-6.1,0c0,0,0,0,0,0c-2.7,0-5,2-5.6,4.7c0,0,0,0,0,0.1l-6.9,39.4c0,0,0,0,0,0
			c0,0,0,0,0,0l-0.7,4.8c-0.3,1.9,0.1,3.8,1.3,5.1c1.2,1.4,3,2.2,5.1,2.2h44.8v6.5h-3.4c-3.3,0-6,2.8-6,6.2v2.8h-3.2
			c-3.5,0-6.4,2.9-6.4,6.5v4c0,1.6,1.2,2.9,2.8,2.9H113c1.5,0,2.8-1.3,2.8-2.9v-4c0-3.6-2.8-6.5-6.4-6.5h-3.2v-2.8
			c0-3.4-2.7-6.2-6-6.2h-3.4v-6.5h13.3c1,0,1.8-0.8,1.8-1.8c0-1-0.8-1.8-1.8-1.8H36.3c-1,0-1.8-0.3-2.4-1c-0.5-0.5-0.6-1.3-0.5-2.2
			l0.5-3.2h109.9l0.5,3.2c0.1,0.9,0,1.6-0.5,2.2c-0.5,0.6-1.3,1-2.4,1h-23.2c-1,0-1.8,0.8-1.8,1.8c0,1,0.8,1.8,1.8,1.8h23.2
			c2.1,0,3.9-0.8,5.1-2.2C147.8,375.5,148.2,373.6,147.9,371.7L147.9,371.7z M112.2,401.1v3.2H65.7v-3.2c0-1.6,1.3-2.9,2.8-2.9h5h31
			h5C111,398.3,112.2,399.5,112.2,401.1z M102.7,391.8v2.8H75.2v-2.8c0-1.4,1.1-2.5,2.4-2.5h5.2l0,0h17.4
			C101.6,389.3,102.7,390.4,102.7,391.8z M93.2,385.6h-8.6v-6.5h8.6L93.2,385.6L93.2,385.6z M87.2,354.8v10.6H62.6l1.4-10.6H87.2z
			 M64.5,351.2l1.4-10.6h21.2v10.6H64.5z M90.7,354.8h23.1l1.4,10.6H90.7V354.8z M90.7,351.2v-10.6h21.2l1.4,10.6L90.7,351.2
			L90.7,351.2z M90.7,326.4h9.9c0,0,0,0,0,0h9.3l1.4,10.6H90.7V326.4z M115.5,340.6H139l1.9,10.6h-23.9L115.5,340.6z M136.8,328.2
			l1.5,8.7H115l-1.4-10.6h21C135.8,326.4,136.6,327.3,136.8,328.2L136.8,328.2z M75.7,314.9c0-7.5,5.9-13.6,13.3-13.6
			c7.3,0,13.3,6.1,13.3,13.6c0,2.9-0.8,5.6-2.4,7.9H89H78.1C76.5,320.4,75.7,317.7,75.7,314.9L75.7,314.9z M67.9,326.4h9.3h9.9v10.6
			H66.4L67.9,326.4z M62.4,340.6L61,351.2H37.1l1.8-10.6H62.4L62.4,340.6z M36.4,354.8h24l-1.4,10.4c0,0,0,0.1,0,0.1H34.6
			L36.4,354.8z M118.8,365.4c0,0,0-0.1,0-0.1l-1.4-10.4h24l1.9,10.6L118.8,365.4L118.8,365.4z"/>
	</g>
	<path class="st1" d="M214.9,405.4c0-2.1-1.4-3.8-3.3-4.3V383c0,0,0-0.1,0-0.1l5.7-5.9c0.4-0.4,0.4-1.1,0-1.6
		c-0.4-0.4-1.1-0.4-1.5,0L197.6,394c-0.2,0.2-0.5,0.3-0.8,0.3s-0.6-0.1-0.8-0.3s-0.3-0.5-0.3-0.8c0-0.3,0.1-0.6,0.3-0.8l23.1-23.8
		c0.4-0.4,1.1-0.4,1.5,0s0.4,1.1,0,1.6L219,372c-0.4,0.4-0.4,1.1,0,1.6c0.4,0.4,1.1,0.4,1.5,0l1.7-1.8c1.3-1.3,1.3-3.4,0-4.7
		s-3.3-1.3-4.6,0l-23.1,23.8c-0.6,0.6-0.9,1.5-0.9,2.4s0.3,1.7,0.9,2.4c0.6,0.6,1.4,1,2.3,1s1.7-0.4,2.3-1l10.2-10.5v16
		c-1.9,0.5-3.3,2.2-3.3,4.3h-13.4c0-2.1-1.4-3.8-3.3-4.3V383c0,0,0-0.1,0-0.1l10.7-11l0,0c1.3-1.3,1.3-3.4,0-4.7s-3.3-1.3-4.6,0
		l-23.1,23.8c-0.6,0.6-0.9,1.5-0.9,2.4s0.3,1.7,0.9,2.4c0.6,0.6,1.4,1,2.3,1s1.7-0.4,2.3-1l10.2-10.5v16c-1.9,0.5-3.3,2.2-3.3,4.3
		h-13.4c0-2.1-1.4-3.8-3.3-4.3V383c0,0,0-0.1,0-0.1l10.7-11c1.3-1.3,1.3-3.4,0-4.7s-3.3-1.3-4.6,0l-17.3,17.8
		c-0.4,0.4-0.4,1.1,0,1.6c0.4,0.4,1.1,0.4,1.5,0l17.3-17.8c0.4-0.4,1.1-0.4,1.5,0s0.4,1.1,0,1.6L153.1,394c-0.2,0.2-0.5,0.3-0.8,0.3
		s-0.6-0.1-0.8-0.3s-0.3-0.5-0.3-0.8c0-0.3,0.1-0.6,0.3-0.8l2.6-2.6c0.4-0.4,0.4-1.1,0-1.6c-0.4-0.4-1.1-0.4-1.5,0l-2.6,2.6
		c-0.6,0.6-0.9,1.5-0.9,2.4s0.3,1.7,0.9,2.4c0.6,0.6,1.4,1,2.3,1s1.7-0.4,2.3-1l10.2-10.5v16c-1.9,0.5-3.3,2.2-3.3,4.3L214.9,405.4z
		 M175.4,394c-0.2,0.2-0.5,0.3-0.8,0.3s-0.6-0.1-0.8-0.3s-0.3-0.5-0.3-0.8c0-0.3,0.1-0.6,0.3-0.8l23.1-23.8c0.2-0.2,0.5-0.3,0.8-0.3
		s0.6,0.1,0.8,0.3c0.4,0.4,0.4,1.1,0,1.6L175.4,394z M210.5,403.1c1.2,0,2.2,1,2.2,2.2h-4.5C208.3,404.1,209.3,403.1,210.5,403.1z
		 M188.2,403.1c1.2,0,2.2,1,2.2,2.2H186C186,404.1,187,403.1,188.2,403.1z M166,403.1c1.2,0,2.2,1,2.2,2.2h-4.5
		C163.8,404.1,164.8,403.1,166,403.1z"/>
	<line class="st6" x1="30.2" y1="406.4" x2="229.9" y2="406.4"/>
</g>
<g>
	<path class="st7" d="M636.3,260.6c0-50.2-40.7-90.9-90.9-90.9s-90.9,40.7-90.9,90.9v37.1c0,50.2-40.7,90.9-90.9,90.9
		s-90.9-40.7-90.9-90.9l-0.1-37.1c0-50.2-40.7-90.9-90.9-90.9s-90.9,40.7-90.9,90.9"/>
	<circle class="st8" cx="91.8" cy="259.4" r="5.6"/>
	<circle class="st8" cx="177.7" cy="169.7" r="5.6"/>
	<circle class="st8" cx="550.3" cy="169.7" r="5.6"/>
	<circle class="st8" cx="636.3" cy="255.9" r="5.6"/>
	<circle class="st8" cx="367" cy="389.8" r="5.6"/>
	<polyline class="st9" points="110.2,189.2 125.1,190.5 123.4,207.2 	"/>
	<polyline class="st9" points="282.7,267.1 273.5,277.7 263.1,265.7 	"/>
	<polyline class="st9" points="462.8,202.9 476.5,200.1 477.5,215.9 	"/>
	<polyline class="st9" points="631.6,209.1 628,222.6 613.4,216.6 	"/>
</g>
</svg>
