<?xml version="1.0" encoding="utf-8"?>
<!-- Generator: Adobe Illustrator 25.4.1, SVG Export Plug-In . SVG Version: 6.00 Build 0)  -->
<svg version="1.1" id="Layer_1" xmlns="http://www.w3.org/2000/svg" xmlns:xlink="http://www.w3.org/1999/xlink" x="0px" y="0px"
	 viewBox="0 0 220 150" style="enable-background:new 0 0 220 150;" xml:space="preserve">
<style type="text/css">
	.st0{display:none;fill:#A5A5A5;}
	.st1{display:none;}
	.st2{display:inline;fill:#E9E8E8;}
	.st3{display:inline;fill:none;stroke:#E9E8E8;stroke-width:3;stroke-linecap:round;stroke-linejoin:round;stroke-miterlimit:10;}
	.st4{display:inline;}
	.st5{fill:none;stroke:#E9E8E8;stroke-width:4;stroke-linecap:round;stroke-linejoin:round;stroke-miterlimit:10;}
	.st6{fill:#E9E8E8;}
	.st7{fill:none;stroke:#E9E8E8;stroke-width:3;stroke-linecap:round;stroke-linejoin:round;stroke-miterlimit:10;}
	.st8{display:inline;fill:none;stroke:#E9E8E8;stroke-width:2;stroke-linecap:round;stroke-linejoin:round;stroke-miterlimit:10;}
	.st9{display:inline;fill:none;stroke:#E9E8E8;stroke-width:4;stroke-miterlimit:10;}
</style>
<g id="레이어_1">
</g>
<g id="레이어_2">
	<rect x="-1.6" y="0.9" class="st0" width="150" height="671.3"/>
	<g class="st1">
		<path class="st2" d="M56.1,45.9h34.6c1.1,0,1.9-0.8,1.9-1.9V21.2c0-1-0.9-1.9-1.9-1.9H56.1c-1.1,0-1.9,0.9-1.9,1.9V44
			C54.2,45.1,55,45.9,56.1,45.9z M58,42.1v-3.8h30.8v3.8H58z M88.8,23.1v11.4H58V23.1H88.8z"/>
		<path class="st2" d="M106.1,11.6H40.7c-9.5,0-17.3,7.7-17.3,17.1v103.3c0,5.2,4.3,9.5,9.6,9.5h80.8c5.3,0,9.6-4.3,9.6-9.5V28.8
			C123.4,19.3,115.7,11.6,106.1,11.6z M119.6,132.1c0,3.1-2.6,5.7-5.8,5.7H33c-3.2,0-5.8-2.6-5.8-5.7V28.8c0-7.4,6-13.3,13.5-13.3
			h65.4c7.4,0,13.5,6,13.5,13.3L119.6,132.1L119.6,132.1z"/>
		<path class="st2" d="M44.6,30.7c3.2,0,5.8-2.6,5.8-5.7s-2.6-5.7-5.8-5.7s-5.8,2.6-5.8,5.7S41.4,30.7,44.6,30.7z M44.6,23.1
			c1.1,0,1.9,0.9,1.9,1.9s-0.9,1.9-1.9,1.9c-1.1,0-1.9-0.9-1.9-1.9C42.6,23.9,43.5,23.1,44.6,23.1z"/>
		<path class="st2" d="M44.6,45.9c3.2,0,5.8-2.6,5.8-5.7s-2.6-5.7-5.8-5.7s-5.8,2.6-5.8,5.7S41.4,45.9,44.6,45.9z M44.6,38.3
			c1.1,0,1.9,0.8,1.9,1.9s-0.9,1.9-1.9,1.9c-1.1,0-1.9-0.8-1.9-1.9S43.5,38.3,44.6,38.3z"/>
		<path class="st2" d="M102.3,19.3c-3.2,0-5.8,2.6-5.8,5.7s2.6,5.7,5.8,5.7s5.8-2.6,5.8-5.7S105.4,19.3,102.3,19.3z M102.3,26.9
			c-1.1,0-1.9-0.9-1.9-1.9s0.9-1.9,1.9-1.9s1.9,0.9,1.9,1.9C104.2,26,103.3,26.9,102.3,26.9z"/>
		<path class="st2" d="M102.3,34.5c-3.2,0-5.8,2.6-5.8,5.7s2.6,5.7,5.8,5.7s5.8-2.6,5.8-5.7S105.4,34.5,102.3,34.5z M102.3,42.1
			c-1.1,0-1.9-0.8-1.9-1.9s0.9-1.9,1.9-1.9s1.9,0.8,1.9,1.9S103.3,42.1,102.3,42.1z"/>
		<path class="st2" d="M98.4,49.7h-50c-5.3,0-9.6,4.3-9.6,9.5v11.4c0,1.1,0.9,1.9,1.9,1.9s1.9-0.8,1.9-1.9V59.3
			c0-3.2,2.6-5.7,5.8-5.7h50c3.2,0,5.8,2.6,5.8,5.7v30.5c0,3.2-2.6,5.7-5.8,5.7h-50c-3.2,0-5.8-2.6-5.8-5.7V78.3
			c0-1.1-0.9-1.9-1.9-1.9s-1.9,0.8-1.9,1.9v11.4c0,5.2,4.3,9.5,9.6,9.5h50c5.3,0,9.6-4.3,9.6-9.5V59.3C108,54,103.7,49.7,98.4,49.7z
			"/>
		<path class="st2" d="M98.4,91.6c1.1,0,1.9-0.8,1.9-1.9V59.3c0-1-0.9-1.9-1.9-1.9h-50c-1.1,0-1.9,0.8-1.9,1.9v30.5
			c0,1.1,0.9,1.9,1.9,1.9H98.4z M50.3,87.8V76.4h46.2v11.4L50.3,87.8L50.3,87.8z M96.5,61.2v11.4H50.3V61.2H96.5z"/>
	</g>
	<g class="st1">
		<path class="st3" d="M50.1,58.2v-7.9c0-2.3,1.7-4.2,3.8-4.2h37.5c2.1,0,3.8,1.9,3.8,4.2v21.7c0,2.3-1.7,4.2-3.8,4.2H53.8
			c-2.1,0-3.8-1.9-3.8-4.2v-8.8"/>
		<g class="st4">
			<path class="st5" d="M129.2,119.2H17.6c-2.3,0-4.2-2-4.2-4.5V38.7c0-2.5,1.9-4.5,4.2-4.5h111.6c2.3,0,4.2,2,4.2,4.5v75.9
				C133.4,117.1,131.5,119.2,129.2,119.2z"/>
			<path class="st6" d="M24.2,114.2L24.2,114.2c-1.1,0-2-0.9-2-2v-76c0-1.1,0.9-2,2-2l0,0c1.1,0,2,0.9,2,2v76
				C26.2,113.2,25.3,114.2,24.2,114.2z"/>
			<path class="st6" d="M122.6,119.2L122.6,119.2c-1.1,0-2-0.9-2-2v-76c0-1.1,0.9-2,2-2l0,0c1.1,0,2,0.9,2,2v76
				C124.6,118.2,123.7,119.2,122.6,119.2z"/>
		</g>
		<g class="st4">
			<ellipse class="st7" cx="42.1" cy="104.9" rx="3.6" ry="3.4"/>
			<ellipse class="st7" cx="54.6" cy="104.9" rx="3.6" ry="3.4"/>
			<ellipse class="st7" cx="67.2" cy="104.9" rx="3.6" ry="3.4"/>
			<ellipse class="st7" cx="79.7" cy="104.9" rx="3.6" ry="3.4"/>
			<ellipse class="st7" cx="92.1" cy="104.9" rx="3.6" ry="3.4"/>
			<ellipse class="st7" cx="104.7" cy="104.9" rx="3.6" ry="3.4"/>
		</g>
		<g class="st4">
			<ellipse class="st6" cx="55" cy="87.6" rx="4.4" ry="4.2"/>
			<ellipse class="st6" cx="73.5" cy="87.6" rx="4.4" ry="4.2"/>
			<ellipse class="st6" cx="91.8" cy="87.4" rx="4.4" ry="4.2"/>
		</g>
		<path class="st8" d="M113.6,55.1h-10.9c-0.7,0-1.3-0.5-1.3-1.2v-4.1c0-0.7,0.6-1.2,1.3-1.2h10.9c0.7,0,1.3,0.5,1.3,1.2v4.1
			C114.8,54.5,114.2,55.1,113.6,55.1z"/>
		<path class="st8" d="M113.6,64.6h-10.9c-0.7,0-1.3-0.6-1.3-1.2v-4.1c0-0.7,0.6-1.2,1.3-1.2h10.9c0.7,0,1.3,0.5,1.3,1.2v4.1
			C114.8,64.1,114.2,64.6,113.6,64.6z"/>
		<path class="st2" d="M104.5,51h7.2c0.3,0,0.6,0.2,0.6,0.6V52c0,0.3-0.3,0.6-0.6,0.6h-7.2c-0.3,0-0.6-0.2-0.6-0.6v-0.4
			C103.9,51.3,104.2,51,104.5,51z"/>
		<path class="st2" d="M104.5,60.5h7.2c0.3,0,0.6,0.2,0.6,0.6v0.4c0,0.3-0.3,0.6-0.6,0.6h-7.2c-0.3,0-0.6-0.2-0.6-0.6v-0.4
			C103.9,60.8,104.2,60.5,104.5,60.5z"/>
	</g>
	<g class="st1">
		<g class="st4">
			<g>
				<path class="st6" d="M131.4,56.7c1.1,0,2-0.9,2-2v-12c0-1.1-0.9-2-2-2h-8v-10c0-1.1-0.9-2-2-2h-12c-1.1,0-2,0.9-2,2v10h-8v-18
					c0-3.3-2.7-6-6-6h-40c-3.3,0-6,2.7-6,6v18h-8v-10c0-1.1-0.9-2-2-2h-12c-1.1,0-2,0.9-2,2v10h-8c-1.1,0-2,0.9-2,2v12
					c0,1.1,0.9,2,2,2h2v64h-2c-1.1,0-2,0.9-2,2v12c0,1.1,0.9,2,2,2h116c1.1,0,2-0.9,2-2v-12c0-1.1-0.9-2-2-2h-2v-64
					C129.4,56.6,131.4,56.6,131.4,56.7z M111.4,32.7h8v8h-8V32.7z M51.4,22.6c0-1.1,0.9-2,2-2h40c1.1,0,2,0.9,2,2v18h-4v-14
					c0-1.1-0.9-2-2-2h-32c-1.1,0-2,0.9-2,2v14h-4C51.4,40.7,51.4,22.6,51.4,22.6z M87.4,28.6v12h-28v-12
					C59.4,28.7,87.4,28.7,87.4,28.6z M27.4,32.7h8v8h-8V32.7z M129.4,132.6h-112v-8h112V132.6z M21.4,120.7v-64h104v64H21.4z
					 M17.4,52.7v-8h112v8H17.4z"/>
			</g>
		</g>
		<g class="st4">
			<g>
				<path class="st6" d="M69.4,68.7v-4h-38c-1.1,0-2,0.9-2,2v44c0,1.1,0.9,2,2,2h26v-4h-24v-40H69.4z"/>
			</g>
		</g>
		<g class="st4">
			<g>
				<path class="st6" d="M115.4,64.7h-26v4h24v40h-34v4h36c1.1,0,2-0.9,2-2v-44C117.4,65.6,116.5,64.7,115.4,64.7z"/>
			</g>
		</g>
		<g class="st4">
			<g>
				<path class="st6" d="M93.3,85.9c-0.3-0.8-1-1.2-1.8-1.2H80l5.4-21.5c0.3-1.1-0.4-2.2-1.5-2.4c-0.7-0.2-1.4,0-1.9,0.5l-28,28
					c-0.8,0.8-0.8,2.1,0,2.8c0.4,0.4,0.9,0.6,1.4,0.6l11.5,0.1l-5.4,21.4c-0.3,1.1,0.4,2.2,1.5,2.4c0.7,0.2,1.4,0,1.9-0.5l28-28
					C93.4,87.5,93.6,86.6,93.3,85.9z M67.1,108.1l4.2-16.8c0.3-1.1-0.4-2.2-1.4-2.4c-0.2,0-0.3-0.1-0.5-0.1l-9.2-0.1l19.5-19.5
					l-4.2,17c-0.3,1.1,0.4,2.2,1.5,2.4c0.2,0,0.3,0.1,0.5,0.1h9.2L67.1,108.1z"/>
			</g>
		</g>
		<g class="st4">
			<g>
				<polygon class="st6" points="45.4,76.7 45.4,72.7 41.4,72.7 41.4,76.7 37.4,76.7 37.4,80.7 41.4,80.7 41.4,84.7 45.4,84.7 
					45.4,80.7 49.4,80.7 49.4,76.7 				"/>
			</g>
		</g>
		<g class="st4">
			<g>
				<rect x="97.4" y="76.7" class="st6" width="12" height="4"/>
			</g>
		</g>
	</g>
	<g class="st1">
		<g class="st4">
			<path class="st6" d="M34.9,29.4c-7.3,0.4-13.3,6.2-14,13.6c-0.3,4.5,1.2,9,4.5,12.2c2,2,3.2,4.4,3.2,7.1v9.6
				c0,0.7,0.5,1.2,1.1,1.2h4.7v0.8c0,0.7,0.5,1.2,1.1,1.2s1.1-0.5,1.1-1.2v-0.8h4.7c0.6,0,1.1-0.5,1.1-1.1v-9.8c0-2.7,1.1-5.1,3.1-7
				c3-2.8,4.7-6.8,4.7-10.9C50.2,35.9,43.3,29,34.9,29.4z M31,63.9h9.2v2.2H31V63.9z M31,70.8v-2.3h9.2v2.3H31z M44,53.6
				c-2.2,2.2-3.6,5-3.7,8H31c-0.2-3-1.5-5.8-3.8-8c-2.8-2.7-4.2-6.4-3.9-10.3C23.9,37,28.9,32.1,35,31.7c7-0.4,13,5.5,13,12.7
				C48,47.9,46.5,51.1,44,53.6z"/>
			<path class="st6" d="M38.4,41.5l0.1-5c0-0.9-1.1-1.6-1.9-0.8L26.5,46c-0.9,0.9-0.3,2,0.8,2h5.4l-0.5,5.3c0,1.2,1.2,1.5,1.9,0.9
				l10.6-10.8c0.7-0.6,0.4-2-0.8-2L38.4,41.5L38.4,41.5L38.4,41.5z M34.7,50.4l0.3-3.4c0.1-0.7-0.2-1.3-1.1-1.3H30l6.1-6.3L36,42.8
				c0,1,0.7,1.2,1.1,1.2H41L34.7,50.4z"/>
			<rect x="34.4" y="21.6" class="st6" width="2.3" height="4.9"/>
			<path class="st6" d="M20.7,27.5l3.4,3.4l-1.6,1.6l-3.4-3.4L20.7,27.5z"/>
			<rect x="13.4" y="43.1" class="st6" width="4.8" height="2.3"/>
			<rect x="53" y="43.1" class="st6" width="4.8" height="2.3"/>
			<path class="st6" d="M48.7,32.6l-1.6-1.6l3.4-3.4l1.6,1.6L48.7,32.6z"/>
		</g>
		<g class="st4">
			<path class="st6" d="M131.7,96.3h-31.2c-1,0-1.7,0.8-1.7,1.8v5.9L82.9,85.2c-2.6-3.1-6.5-4.9-10.5-4.9h-4.9
				c1.1-1.5,1.7-3.4,1.7-5.3v-7.8l0.7-0.4c2.4-1.2,3.4-4.3,2.2-6.8c-0.8-1.7-2.6-2.8-4.4-2.8h-2c-0.5,0-0.9,0.2-1.2,0.5L52.5,70.3
				C52.2,70.6,52,71,52,71.5v8.8h-8.5c-7.7,0-14,6.4-14,14.3v37h3.5V104c0.2,0.2,0.4,0.5,0.6,0.7l15.4,15.7c2.6,2.7,6.1,4.2,9.8,4.1
				h8.8v1.8c0,2.9,2.3,5.3,5.2,5.3h58.9c1,0,1.7-0.8,1.7-1.8V98C133.4,97.1,132.6,96.3,131.7,96.3z M97.4,120.9l-6.2-4.8
				c-0.6-0.5-1.5-0.5-2.1,0l-6.5,4.9h-1.2v-8.8h6.3c3.2,0,6.2,1.5,8.1,4l2.7,3.5c0.3,0.4,0.2,0.9-0.1,1.2c-0.2,0.1-0.3,0.2-0.5,0.2
				h0C97.7,121,97.5,121,97.4,120.9z M91.8,121h-3.5l1.7-1.3L91.8,121z M76.2,108.7V101l6.6,7.7H76.2z M55.4,82.1
				c2,1.5,4.5,2.1,6.9,1.6v0.2c0,1.9-1.5,3.5-3.5,3.5c-1.9,0-3.5-1.6-3.5-3.5L55.4,82.1L55.4,82.1z M66.6,60.9h1.3
				c0.8,0,1.5,0.7,1.5,1.5c0,0.6-0.3,1.1-0.8,1.3l-1.3,0.7h-4.1L66.6,60.9z M55.4,72.2l4.2-4.3h6.2v7.1c0,2.9-2.3,5.3-5.2,5.3
				s-5.2-2.4-5.2-5.3L55.4,72.2L55.4,72.2z M51.4,117.9L36,102.2c-4.1-4.2-4.1-11,0-15.2c2-2,4.7-3.2,7.4-3.2H52
				c0,3.9,3.1,7.1,6.9,7.1s6.9-3.2,6.9-7.1h6.6c3,0,5.9,1.3,7.9,3.7l18.5,21.8v4.9l-0.2-0.3c-2.6-3.4-6.6-5.3-10.8-5.3h-0.3
				L75.8,95.1c-0.6-0.7-1.7-0.8-2.4-0.2c-0.4,0.3-0.6,0.8-0.6,1.3v12.4H61.3L49.7,96.8l-2.5,2.5l12.1,12.4c0.3,0.3,0.8,0.5,1.2,0.5
				H78v8.8H58.7C56,121,53.3,119.9,51.4,117.9z M71,126.3v-1.8h27.7v3.5h-26C71.8,128.1,71,127.3,71,126.3z M129.9,128.1h-27.7V99.8
				h27.7V128.1z"/>
			<path class="st6" d="M116.1,119.3c2.9,0,5.2-2.4,5.2-5.3s-2.3-5.3-5.2-5.3c-2.9,0-5.2,2.4-5.2,5.3
				C110.9,116.9,113.2,119.3,116.1,119.3z M116.1,112.2c1,0,1.7,0.8,1.7,1.8s-0.8,1.8-1.7,1.8s-1.7-0.8-1.7-1.8
				S115.1,112.2,116.1,112.2z"/>
			<path class="st6" d="M128.2,25.5H88.4c-2.9,0-5.2,2.4-5.2,5.3v3.5v3.5v38.9c0,2.9,2.3,5.3,5.2,5.3h39.9c2.9,0,5.2-2.4,5.2-5.3
				v-46C133.4,27.9,131.1,25.5,128.2,25.5z M129.9,76.8c0,1-0.8,1.8-1.7,1.8H88.4c-1,0-1.7-0.8-1.7-1.8v-46c0-1,0.8-1.8,1.7-1.8
				h39.9c1,0,1.7,0.8,1.7,1.8V76.8z"/>
			<rect x="90.1" y="37.9" class="st6" width="3.5" height="3.5"/>
			<rect x="90.1" y="45" class="st6" width="3.5" height="3.5"/>
			<rect x="90.1" y="52" class="st6" width="3.5" height="3.5"/>
			<path class="st6" d="M97,59.1h19.1c1,0,1.7-0.8,1.7-1.8V52h3.5c1,0,1.7-0.8,1.7-1.8v-7.1c0-1-0.8-1.8-1.7-1.8h-8.7v-5.3
				c0-1-0.8-1.8-1.7-1.8H97c-1,0-1.7,0.8-1.7,1.8v21.2C95.3,58.3,96.1,59.1,97,59.1z M114.3,55.6H98.8V52h15.6V55.6z M119.6,48.5
				H98.8V45h20.8V48.5z M98.8,37.9h10.4v3.5H98.8V37.9z"/>
			<rect x="97" y="62.7" class="st6" width="5.2" height="3.5"/>
			<rect x="105.7" y="62.7" class="st6" width="19.1" height="3.5"/>
			<rect x="91.8" y="69.7" class="st6" width="19.1" height="3.5"/>
			<rect x="114.3" y="69.7" class="st6" width="10.4" height="3.5"/>
		</g>
		<polyline class="st9" points="84.2,34 61,34 49.2,39.5 		"/>
	</g>
	<g>
		<g>
			<path class="st6" d="M42.4,44.5h6.4c1,0,1.8-0.8,1.8-1.8s-0.8-1.8-1.8-1.8h-6.4c-1,0-1.8,0.8-1.8,1.8S41.4,44.5,42.4,44.5z"/>
			<path class="st6" d="M92.6,42.7c0,1,0.8,1.8,1.8,1.8h6.4c1,0,1.8-0.8,1.8-1.8s-0.8-1.8-1.8-1.8h-6.4
				C93.4,40.9,92.6,41.7,92.6,42.7z"/>
			<path class="st6" d="M87.7,28c0.5,0,0.9-0.2,1.3-0.5l4.5-4.6c0.7-0.7,0.7-1.9,0-2.6c-0.7-0.7-1.8-0.7-2.5,0l-4.5,4.6
				c-0.7,0.7-0.7,1.9,0,2.6C86.8,27.8,87.2,28,87.7,28L87.7,28z"/>
			<path class="st6" d="M54.2,27.4c0.3,0.4,0.8,0.5,1.3,0.5s0.9-0.2,1.3-0.5c0.7-0.7,0.7-1.9,0-2.6l-4.5-4.6c-0.7-0.7-1.8-0.7-2.5,0
				c-0.7,0.7-0.7,1.9,0,2.6L54.2,27.4z"/>
			<path class="st6" d="M71.6,21.1c1,0,1.8-0.8,1.8-1.8v-6.6c0-1-0.8-1.8-1.8-1.8c-1,0-1.8,0.8-1.8,1.8v6.6
				C69.8,20.3,70.6,21.1,71.6,21.1z"/>
			<path class="st6" d="M130.6,99.6l-0.7-4.8c0,0,0,0,0,0c0,0,0,0,0,0l-5-28.4c0,0,0-0.1,0-0.1L123,55.4c0,0,0,0,0-0.1
				c-0.6-2.8-2.9-4.7-5.6-4.7c0,0,0,0,0,0H86.6c1.2-2.4,1.8-5.1,1.8-7.9c0-9.5-7.5-17.3-16.8-17.3s-16.8,7.8-16.8,17.3
				c0,2.7,0.6,5.4,1.8,7.9H40.1c-1,0-1.8,0.8-1.8,1.8s0.8,1.8,1.8,1.8h6.8l-1.4,10.6H22.2l1.5-8.7c0.2-0.9,1-1.8,2.2-1.8l6.1,0l0,0
				c1,0,1.8-0.8,1.8-1.8c0-1-0.8-1.8-1.8-1.8l-6.1,0c0,0,0,0,0,0c-2.7,0-5,2-5.6,4.7c0,0,0,0,0,0.1l-6.9,39.4c0,0,0,0,0,0
				c0,0,0,0,0,0l-0.7,4.8c-0.3,1.9,0.1,3.8,1.3,5.1c1.2,1.4,3,2.2,5.1,2.2h44.8v6.6h-3.4c-3.3,0-6,2.8-6,6.2v2.8h-3.2
				c-3.5,0-6.4,2.9-6.4,6.5v4c0,1.6,1.2,2.9,2.8,2.9h48.1c1.5,0,2.8-1.3,2.8-2.9v-4c0-3.6-2.8-6.5-6.4-6.5h-3.2v-2.8
				c0-3.4-2.7-6.2-6-6.2h-3.4v-6.6h13.3c1,0,1.8-0.8,1.8-1.8s-0.8-1.8-1.8-1.8H19c-1,0-1.9-0.3-2.4-0.9c-0.5-0.5-0.6-1.3-0.5-2.2
				l0.5-3.2h109.9l0.5,3.2c0.1,0.9,0,1.6-0.5,2.2c-0.5,0.6-1.3,0.9-2.4,0.9H101c-1,0-1.8,0.8-1.8,1.8s0.8,1.8,1.8,1.8h23.2
				c2.1,0,3.9-0.8,5.1-2.2C130.4,103.3,130.9,101.5,130.6,99.6L130.6,99.6z M94.9,129v3.2H48.3V129c0-1.6,1.3-2.9,2.8-2.9h5h31h5
				C93.6,126.1,94.9,127.4,94.9,129z M85.3,119.7v2.8H57.9v-2.8c0-1.4,1.1-2.5,2.4-2.5h5.2l0,0h17.4
				C84.2,117.1,85.3,118.3,85.3,119.7z M75.9,113.5h-8.6v-6.6h8.6L75.9,113.5L75.9,113.5z M69.8,82.7v10.6H45.3l1.4-10.6H69.8z
				 M47.2,79l1.4-10.6h21.2V79H47.2z M73.4,82.7h23.1l1.4,10.6H73.4V82.7z M73.4,79V68.5h21.2L96,79H73.4z M73.4,54.2h9.9
				c0,0,0,0,0,0h9.3l1.4,10.6H73.4V54.2z M98.2,68.5h23.5l1.8,10.6H99.6L98.2,68.5z M119.5,56.1l1.5,8.7H97.7l-1.4-10.6h21
				C118.4,54.3,119.2,55.2,119.5,56.1L119.5,56.1z M58.3,42.7c0-7.5,5.9-13.6,13.3-13.6c7.3,0,13.3,6.1,13.3,13.6
				c0,2.9-0.8,5.6-2.4,7.9H71.6H60.8C59.2,48.3,58.3,45.6,58.3,42.7L58.3,42.7z M50.5,54.2h9.4h9.9v10.6H49.1L50.5,54.2z M45,68.5
				L43.6,79H19.7l1.9-10.6H45L45,68.5z M19.1,82.7h24l-1.4,10.4c0,0.1,0,0.1,0,0.1H17.2L19.1,82.7z M101.5,93.3c0-0.1,0-0.1,0-0.1
				l-1.4-10.4h24l1.8,10.6L101.5,93.3L101.5,93.3z"/>
		</g>
		<path class="st6" d="M197.5,133.2c0-2.1-1.4-3.8-3.3-4.3v-18.1c0,0,0-0.1,0-0.1l5.7-5.9c0.4-0.4,0.4-1.1,0-1.6s-1.1-0.4-1.5,0
			l-18.1,18.6c-0.2,0.2-0.5,0.3-0.8,0.3s-0.6-0.1-0.8-0.3s-0.3-0.5-0.3-0.8s0.1-0.6,0.3-0.8l23.1-23.8c0.4-0.4,1.1-0.4,1.5,0
			s0.4,1.1,0,1.6l-1.7,1.8c-0.4,0.4-0.4,1.1,0,1.6s1.1,0.4,1.5,0l1.7-1.8c1.3-1.3,1.3-3.4,0-4.7s-3.3-1.3-4.6,0l-23.1,23.8
			c-0.6,0.6-0.9,1.5-0.9,2.4s0.3,1.7,0.9,2.4c0.6,0.6,1.4,1,2.3,1s1.7-0.3,2.3-1l10.2-10.5v16c-1.9,0.5-3.3,2.2-3.3,4.3h-13.4
			c0-2.1-1.4-3.8-3.3-4.3v-18.1c0,0,0-0.1,0-0.1l10.7-11.1l0,0c1.3-1.3,1.3-3.4,0-4.7s-3.3-1.3-4.6,0l-23.1,23.8
			c-0.6,0.6-0.9,1.5-0.9,2.4s0.3,1.7,0.9,2.4c0.6,0.6,1.4,1,2.3,1s1.7-0.3,2.3-1l10.2-10.5v16c-1.9,0.5-3.3,2.2-3.3,4.3H153
			c0-2.1-1.4-3.8-3.3-4.3v-18.1c0,0,0-0.1,0-0.1l10.7-11.1c1.3-1.3,1.3-3.4,0-4.7s-3.3-1.3-4.6,0l-17.3,17.8c-0.4,0.4-0.4,1.1,0,1.6
			s1.1,0.4,1.5,0l17.3-17.8c0.4-0.4,1.1-0.4,1.5,0s0.4,1.1,0,1.6l-23.1,23.8c-0.2,0.2-0.5,0.3-0.8,0.3s-0.6-0.1-0.8-0.3
			s-0.3-0.5-0.3-0.8s0.1-0.6,0.3-0.8l2.6-2.6c0.4-0.4,0.4-1.1,0-1.6s-1.1-0.4-1.5,0l-2.6,2.6c-0.6,0.6-0.9,1.5-0.9,2.4
			s0.3,1.7,0.9,2.4c0.6,0.6,1.4,1,2.3,1s1.7-0.3,2.3-1l10.2-10.5v16c-1.9,0.5-3.3,2.2-3.3,4.3L197.5,133.2z M158,121.9
			c-0.2,0.2-0.5,0.3-0.8,0.3s-0.6-0.1-0.8-0.3s-0.3-0.5-0.3-0.8s0.1-0.6,0.3-0.8l23.1-23.8c0.2-0.2,0.5-0.3,0.8-0.3s0.6,0.1,0.8,0.3
			c0.4,0.4,0.4,1.1,0,1.6L158,121.9z M193.1,131c1.2,0,2.2,1,2.2,2.2h-4.5C190.9,132,191.9,131,193.1,131z M170.9,131
			c1.2,0,2.2,1,2.2,2.2h-4.5C168.7,132,169.7,131,170.9,131z M148.7,131c1.2,0,2.2,1,2.2,2.2h-4.5C146.4,132,147.4,131,148.7,131z"
			/>
		<line class="st7" x1="12.8" y1="134.2" x2="212.5" y2="134.2"/>
	</g>
</g>
</svg>
